<svg width="27" height="27" viewBox="0 0 27 27" fill="none" xmlns="http://www.w3.org/2000/svg">
<path d="M17.6667 7.94444H17.6806M1 5.16667C1 4.0616 1.43899 3.00179 2.22039 2.22039C3.00179 1.43899 4.0616 1 5.16667 1H21.8333C22.9384 1 23.9982 1.43899 24.7796 2.22039C25.561 3.00179 26 4.0616 26 5.16667V21.8333C26 22.9384 25.561 23.9982 24.7796 24.7796C23.9982 25.561 22.9384 26 21.8333 26H5.16667C4.0616 26 3.00179 25.561 2.22039 24.7796C1.43899 23.9982 1 22.9384 1 21.8333V5.16667Z" stroke="#ED3C7C" stroke-width="2" stroke-linecap="round" stroke-linejoin="round"/>
<path d="M1 19.0558L7.94444 12.1114C9.23333 10.8711 10.8222 10.8711 12.1111 12.1114L19.0556 19.0558" stroke="#ED3C7C" stroke-width="2" stroke-linecap="round" stroke-linejoin="round"/>
<path d="M16.2778 16.2776L17.6667 14.8887C18.9556 13.6484 20.5445 13.6484 21.8334 14.8887L26.0001 19.0554" stroke="#ED3C7C" stroke-width="2" stroke-linecap="round" stroke-linejoin="round"/>
</svg>
