<svg width="25" height="19" viewBox="0 0 25 19" fill="none" xmlns="http://www.w3.org/2000/svg">
<path fill-rule="evenodd" clip-rule="evenodd" d="M13.75 2.87157C13.7501 2.57511 13.6448 2.28827 13.4529 2.06228C13.261 1.83629 12.995 1.68585 12.7025 1.63782L2.90375 0.0328183C2.54602 -0.0257236 2.17984 -0.00577203 1.83059 0.0912899C1.48133 0.188352 1.15737 0.360202 0.881141 0.594929C0.604914 0.829656 0.383036 1.12165 0.230886 1.45066C0.0787362 1.77967 -4.61206e-05 2.13783 2.02559e-08 2.50032V14.6716C0.00024693 15.2673 0.2132 15.8433 0.600501 16.2959C0.987803 16.7485 1.524 17.048 2.1125 17.1403L12.3063 18.7353C12.4846 18.7633 12.6669 18.7523 12.8406 18.7031C13.0143 18.6539 13.1753 18.5677 13.3125 18.4503C13.4497 18.3329 13.5599 18.1873 13.6354 18.0233C13.7109 17.8593 13.75 17.6809 13.75 17.5003V2.87157ZM2.5 14.6716V2.50032L11.25 3.93407V16.0391L2.5 14.6716Z" fill="#ED3C7C"/>
<path fill-rule="evenodd" clip-rule="evenodd" d="M25 2.50032C25 2.13783 24.9213 1.77967 24.7691 1.45066C24.617 1.12165 24.3951 0.829656 24.1189 0.594929C23.8426 0.360202 23.5187 0.188352 23.1694 0.0912899C22.8202 -0.00577203 22.454 -0.0257236 22.0963 0.0328183L12.2975 1.63782C12.005 1.68585 11.739 1.83629 11.5471 2.06228C11.3552 2.28827 11.2499 2.57511 11.25 2.87157V17.5003C11.25 17.6809 11.2891 17.8593 11.3646 18.0233C11.4401 18.1873 11.5503 18.3329 11.6875 18.4503C11.8247 18.5677 11.9857 18.6539 12.1594 18.7031C12.3331 18.7523 12.5154 18.7633 12.6937 18.7353L22.8863 17.1403C23.475 17.0483 24.0115 16.7489 24.399 16.2963C24.7866 15.8436 24.9997 15.2675 25 14.6716V2.50032ZM22.5 14.6716L13.75 16.0391V3.93407L22.5 2.50032V14.6716Z" fill="#ED3C7C"/>
</svg>
