<svg width="25" height="25" viewBox="0 0 25 25" fill="none" xmlns="http://www.w3.org/2000/svg">
<path d="M12.5 25C10.7708 25 9.14583 24.6717 7.625 24.015C6.10416 23.3583 4.78125 22.4679 3.65625 21.3437C2.53125 20.2196 1.64083 18.8967 0.985001 17.375C0.329168 15.8533 0.000834915 14.2283 1.58228e-06 12.5C-0.00083175 10.7717 0.327501 9.14666 0.985001 7.625C1.6425 6.10333 2.53292 4.78041 3.65625 3.65625C4.77958 2.53208 6.1025 1.64167 7.625 0.984999C9.1475 0.328333 10.7725 0 12.5 0C14.2275 0 15.8525 0.328333 17.375 0.984999C18.8975 1.64167 20.2204 2.53208 21.3437 3.65625C22.4671 4.78041 23.3579 6.10333 24.0162 7.625C24.6746 9.14666 25.0025 10.7717 25 12.5C24.9975 14.2283 24.6692 15.8533 24.015 17.375C23.3608 18.8967 22.4704 20.2196 21.3437 21.3437C20.2171 22.4679 18.8942 23.3587 17.375 24.0162C15.8558 24.6737 14.2308 25.0016 12.5 25ZM12.5 22.5C13.625 22.5 14.7083 22.3179 15.75 21.9537C16.7917 21.5896 17.75 21.0633 18.625 20.375L4.625 6.375C3.9375 7.25 3.41125 8.20833 3.04625 9.24999C2.68125 10.2917 2.49917 11.375 2.5 12.5C2.5 15.2917 3.46875 17.6562 5.40625 19.5937C7.34375 21.5312 9.70833 22.5 12.5 22.5ZM20.375 18.625C21.0625 17.75 21.5887 16.7917 21.9537 15.75C22.3187 14.7083 22.5008 13.625 22.5 12.5C22.5 9.70833 21.5312 7.34374 19.5937 5.40625C17.6562 3.46875 15.2917 2.5 12.5 2.5C11.375 2.5 10.2917 2.68208 9.25 3.04625C8.20833 3.41041 7.25 3.93666 6.375 4.625L20.375 18.625Z" fill="#ED3C7C"/>
</svg>
