<svg width="27" height="27" viewBox="0 0 27 27" fill="none" xmlns="http://www.w3.org/2000/svg">
<path d="M13.5 26L13.4984 26C11.2221 26.0035 8.98843 25.382 7.04105 24.2032C6.80078 24.0578 6.51042 24.0201 6.24097 24.0993L2.14778 25.3035L2.42294 26.2389L2.14777 25.3035C2.08512 25.322 2.01866 25.3232 1.95537 25.3071C1.89209 25.2909 1.83432 25.258 1.78814 25.2119C1.74197 25.1657 1.70908 25.1079 1.69294 25.0446C1.67681 24.9813 1.67802 24.9149 1.69646 24.8522L0.862881 24.607L1.69646 24.8522L2.90066 20.759C2.9799 20.4897 2.94225 20.1994 2.7969 19.9591C1.6185 18.0114 0.996983 15.7778 1.00001 13.5013V13.5C1.00001 6.59623 6.59624 1 13.5 1C20.4038 1 26 6.59623 26 13.5C26 20.4038 20.4038 26 13.5 26ZM8.77501 10.475C7.97273 10.475 7.20331 10.7937 6.63601 11.361C6.06871 11.9283 5.75001 12.6977 5.75001 13.5C5.75001 14.3023 6.06871 15.0717 6.63601 15.639C7.20331 16.2063 7.97273 16.525 8.77501 16.525C9.57729 16.525 10.3467 16.2063 10.914 15.639C11.4813 15.0717 11.8 14.3023 11.8 13.5C11.8 12.6977 11.4813 11.9283 10.914 11.361C10.3467 10.7937 9.57729 10.475 8.77501 10.475ZM18.225 10.475C17.4227 10.475 16.6533 10.7937 16.086 11.361C15.5187 11.9283 15.2 12.6977 15.2 13.5C15.2 14.3023 15.5187 15.0717 16.086 15.639C16.6533 16.2063 17.4227 16.525 18.225 16.525C19.0273 16.525 19.7967 16.2063 20.364 15.639C20.9313 15.0717 21.25 14.3023 21.25 13.5C21.25 12.6977 20.9313 11.9283 20.364 11.361C19.7967 10.7937 19.0273 10.475 18.225 10.475Z" stroke="#ED3C7C" stroke-width="2" stroke-linejoin="round"/>
</svg>
