<svg width="20" height="20" viewBox="0 0 20 20" fill="none" xmlns="http://www.w3.org/2000/svg">
<path d="M2.0907 14.7866C2.13672 14.5623 2.1044 14.329 1.99913 14.1257C1.36017 12.8918 1 11.4902 1 10C1 8.21997 1.52784 6.47991 2.51677 4.99987C3.50571 3.51983 4.91131 2.36628 6.55585 1.68509C8.20038 1.0039 10.01 0.82567 11.7558 1.17294C13.5016 1.5202 15.1053 2.37737 16.364 3.63604C17.6226 4.89472 18.4798 6.49836 18.8271 8.24419C19.1743 9.99002 18.9961 11.7996 18.3149 13.4442C17.6337 15.0887 16.4802 16.4943 15.0001 17.4832C13.5201 18.4722 11.78 19 10 19C8.51082 19 7.10819 18.6398 5.87426 18.0009C5.67095 17.8956 5.43769 17.8633 5.21342 17.9093L1.28442 18.7156L2.0907 14.7866Z" stroke="#ED3C7C" stroke-width="2" stroke-linecap="round" stroke-linejoin="round"/>
</svg>
