<svg width="26" height="27" viewBox="0 0 26 27" fill="none" xmlns="http://www.w3.org/2000/svg">
<path fill-rule="evenodd" clip-rule="evenodd" d="M19.1501 10.6566C20.9975 9.73527 22.2666 7.82695 22.2666 5.62223C22.2666 2.51716 19.7494 0 16.6443 0C13.5393 0 11.0221 2.51716 11.0221 5.62223C11.0221 7.75145 12.2057 9.60423 13.9509 10.5585C10.1959 11.6198 7.44434 15.0719 7.44434 19.1667V23H25.3332V19.1667C25.3332 15.1904 22.7386 11.8201 19.1501 10.6566Z" fill="#ED3C7C"/>
<path d="M11.2594 13.7617C10.896 13.9429 10.6783 14.326 10.7085 14.731C10.7387 15.1361 11.0109 15.4826 11.3973 15.6078C14.5857 16.6416 16.8889 19.6365 16.8889 23.1667V26H1V23.1667C1 19.5312 3.44283 16.4636 6.77855 15.5208C7.16944 15.4103 7.45466 15.0744 7.50025 14.6707C7.54583 14.2671 7.34273 13.876 6.98633 13.6811C5.54899 12.8952 4.57778 11.3714 4.57778 9.62223C4.57778 7.06944 6.64722 5 9.20001 5C11.7528 5 13.8222 7.06944 13.8222 9.62223C13.8222 11.4333 12.7807 13.003 11.2594 13.7617Z" fill="#FFD5EB" stroke="#FFD5EB" stroke-width="2" stroke-linejoin="round"/>
</svg>
