<svg width="25" height="25" viewBox="0 0 25 25" fill="none" xmlns="http://www.w3.org/2000/svg">
<path d="M22.9167 0H2.08333C1.5308 0 1.00089 0.219493 0.610194 0.610194C0.219493 1.00089 0 1.5308 0 2.08333V22.9167C0 23.4692 0.219493 23.9991 0.610194 24.3898C1.00089 24.7805 1.5308 25 2.08333 25H22.9167C23.4692 25 23.9991 24.7805 24.3898 24.3898C24.7805 23.9991 25 23.4692 25 22.9167V2.08333C25 1.5308 24.7805 1.00089 24.3898 0.610194C23.9991 0.219493 23.4692 0 22.9167 0ZM20.8333 19.7917H4.16667C3.8904 19.7917 3.62545 19.6819 3.4301 19.4866C3.23475 19.2912 3.125 19.0263 3.125 18.75C3.125 18.4737 3.23475 18.2088 3.4301 18.0134C3.62545 17.8181 3.8904 17.7083 4.16667 17.7083H20.8333C21.1096 17.7083 21.3746 17.8181 21.5699 18.0134C21.7653 18.2088 21.875 18.4737 21.875 18.75C21.875 19.0263 21.7653 19.2912 21.5699 19.4866C21.3746 19.6819 21.1096 19.7917 20.8333 19.7917ZM20.8333 13.5417H4.16667C3.8904 13.5417 3.62545 13.4319 3.4301 13.2366C3.23475 13.0412 3.125 12.7763 3.125 12.5C3.125 12.2237 3.23475 11.9588 3.4301 11.7634C3.62545 11.5681 3.8904 11.4583 4.16667 11.4583H20.8333C21.1096 11.4583 21.3746 11.5681 21.5699 11.7634C21.7653 11.9588 21.875 12.2237 21.875 12.5C21.875 12.7763 21.7653 13.0412 21.5699 13.2366C21.3746 13.4319 21.1096 13.5417 20.8333 13.5417ZM20.8333 7.29167H4.16667C3.8904 7.29167 3.62545 7.18192 3.4301 6.98657C3.23475 6.79122 3.125 6.52627 3.125 6.25C3.125 5.97373 3.23475 5.70878 3.4301 5.51343C3.62545 5.31808 3.8904 5.20833 4.16667 5.20833H20.8333C21.1096 5.20833 21.3746 5.31808 21.5699 5.51343C21.7653 5.70878 21.875 5.97373 21.875 6.25C21.875 6.52627 21.7653 6.79122 21.5699 6.98657C21.3746 7.18192 21.1096 7.29167 20.8333 7.29167Z" fill="#ED3C7C"/>
</svg>
