<svg width="27" height="27" viewBox="0 0 27 27" fill="none" xmlns="http://www.w3.org/2000/svg">
<path fill-rule="evenodd" clip-rule="evenodd" d="M13.5765 0C12.7887 0 12.15 0.638666 12.15 1.4265V11.7H1.4265C0.638666 11.7 0 12.3387 0 13.1265C0 13.9143 0.638665 14.553 1.4265 14.553H12.15V25.5735C12.15 26.3613 12.7887 27 13.5765 27C14.3643 27 15.003 26.3613 15.003 25.5735V14.553H25.5735C26.3613 14.553 27 13.9143 27 13.1265C27 12.3387 26.3613 11.7 25.5735 11.7H15.003V1.4265C15.003 0.638666 14.3643 0 13.5765 0Z" fill="#ED3C7C"/>
</svg>
