<svg width="27" height="27" viewBox="0 0 27 27" fill="none" xmlns="http://www.w3.org/2000/svg">
<path d="M6.75 1.125C6.75 0.826631 6.63147 0.540483 6.42049 0.329505C6.20952 0.118526 5.92337 0 5.625 0C5.32663 0 5.04048 0.118526 4.82951 0.329505C4.61853 0.540483 4.5 0.826631 4.5 1.125V4.5H1.125C0.826631 4.5 0.540483 4.61853 0.329505 4.82951C0.118526 5.04048 0 5.32663 0 5.625C0 5.92337 0.118526 6.20952 0.329505 6.42049C0.540483 6.63147 0.826631 6.75 1.125 6.75H4.5V17.7188C4.5 18.9868 5.00374 20.2029 5.9004 21.0996C6.79705 21.9963 8.01318 22.5 9.28125 22.5H20.25V25.875C20.25 26.1734 20.3685 26.4595 20.5795 26.6705C20.7905 26.8815 21.0766 27 21.375 27C21.6734 27 21.9595 26.8815 22.1705 26.6705C22.3815 26.4595 22.5 26.1734 22.5 25.875V22.5H25.875C26.1734 22.5 26.4595 22.3815 26.6705 22.1705C26.8815 21.9595 27 21.6734 27 21.375C27 21.0766 26.8815 20.7905 26.6705 20.5795C26.4595 20.3685 26.1734 20.25 25.875 20.25H9.28125C8.94884 20.25 8.61969 20.1845 8.31258 20.0573C8.00548 19.9301 7.72643 19.7437 7.49139 19.5086C7.25634 19.2736 7.06989 18.9945 6.94268 18.6874C6.81547 18.3803 6.75 18.0512 6.75 17.7188V1.125ZM20.25 9.28125V19.125H22.5V9.28125C22.5 8.01318 21.9963 6.79705 21.0996 5.9004C20.2029 5.00374 18.9868 4.5 17.7188 4.5H7.875V6.75H17.7188C18.0512 6.75 18.3803 6.81547 18.6874 6.94268C18.9945 7.06989 19.2736 7.25634 19.5086 7.49139C19.7437 7.72643 19.9301 8.00548 20.0573 8.31258C20.1845 8.61969 20.25 8.94884 20.25 9.28125Z" fill="#ED3C7C"/>
</svg>
