<svg width="32" height="28" viewBox="0 0 32 28" fill="none" xmlns="http://www.w3.org/2000/svg">
<path d="M9.33333 5.875H4.33333C3.44928 5.875 2.60143 6.21741 1.97631 6.8269C1.35119 7.4364 1 8.26305 1 9.125V23.75C1 24.612 1.35119 25.4386 1.97631 26.0481C2.60143 26.6576 3.44928 27 4.33333 27H27.6667C28.5507 27 29.3986 26.6576 30.0237 26.0481C30.6488 25.4386 31 24.612 31 23.75V9.125C31 8.26305 30.6488 7.4364 30.0237 6.8269C29.3986 6.21741 28.5507 5.875 27.6667 5.875H22.6667M21 12.375L16 17.25M16 17.25L11 12.375M16 17.25V1" stroke="#ED3C7C" stroke-width="2" stroke-linecap="round" stroke-linejoin="round"/>
</svg>
