<svg width="25" height="25" viewBox="0 0 25 25" fill="none" xmlns="http://www.w3.org/2000/svg">
<path d="M12.5012 0C19.4056 0 25.0025 5.59694 25.0025 12.5012C25.0025 19.4043 19.4056 25 12.5012 25C5.59694 25 0 19.4043 0 12.5012C0 5.59694 5.59694 0 12.5012 0ZM12.5012 1.87481C11.0962 1.85957 9.70198 2.12316 8.39943 2.65032C7.09688 3.17749 5.91182 3.95775 4.91283 4.94596C3.91385 5.93417 3.12078 7.1107 2.57952 8.40746C2.03826 9.70422 1.75957 11.0954 1.75957 12.5006C1.75957 13.9058 2.03826 15.297 2.57952 16.5938C3.12078 17.8905 3.91385 19.0671 4.91283 20.0553C5.91182 21.0435 7.09688 21.8238 8.39943 22.3509C9.70198 22.8781 11.0962 23.1417 12.5012 23.1264C15.2994 23.0961 17.9727 21.9632 19.9407 19.9738C21.9086 17.9844 23.0124 15.299 23.0124 12.5006C23.0124 9.70228 21.9086 7.01688 19.9407 5.02745C17.9727 3.03803 15.2994 1.90516 12.5012 1.87481ZM8.07919 15.9797C8.60576 16.6487 9.27737 17.1896 10.0434 17.5613C10.8094 17.933 11.6498 18.126 12.5012 18.1257C13.3519 18.1268 14.1917 17.9346 14.9571 17.5634C15.7226 17.1923 16.3936 16.652 16.9196 15.9834C16.9959 15.8868 17.0905 15.8062 17.198 15.7462C17.3054 15.6861 17.4237 15.6478 17.546 15.6335C17.6682 15.6192 17.7921 15.6291 17.9106 15.6626C18.029 15.6962 18.1397 15.7527 18.2363 15.829C18.3329 15.9054 18.4135 16 18.4735 16.1074C18.5336 16.2149 18.5719 16.3332 18.5862 16.4554C18.6005 16.5777 18.5906 16.7016 18.5571 16.8201C18.5235 16.9385 18.467 17.0492 18.3907 17.1458C17.6892 18.0365 16.7946 18.7563 15.7744 19.2508C14.7542 19.7453 13.635 20.0017 12.5012 20.0005C11.3658 20.0017 10.245 19.7446 9.2236 19.2488C8.20218 18.7529 7.30693 18.0312 6.60559 17.1383C6.52943 17.0415 6.47307 16.9307 6.43974 16.8122C6.40641 16.6936 6.39675 16.5697 6.41131 16.4474C6.42588 16.3252 6.46438 16.207 6.52463 16.0996C6.58488 15.9922 6.66569 15.8977 6.76245 15.8215C6.85921 15.7454 6.97002 15.689 7.08856 15.6557C7.20709 15.6224 7.33104 15.6127 7.45331 15.6273C7.57558 15.6418 7.69378 15.6803 7.80117 15.7406C7.90856 15.8008 8.00303 15.8816 8.07919 15.9784M8.75162 8.43916C8.96043 8.43325 9.1683 8.46927 9.36294 8.5451C9.55758 8.62093 9.73504 8.73501 9.88482 8.88062C10.0346 9.02622 10.1537 9.20038 10.235 9.3928C10.3163 9.58522 10.3582 9.79199 10.3582 10.0009C10.3582 10.2098 10.3163 10.4165 10.235 10.6089C10.1537 10.8014 10.0346 10.9755 9.88482 11.1211C9.73504 11.2667 9.55758 11.3808 9.36294 11.4566C9.1683 11.5325 8.96043 11.5685 8.75162 11.5626C8.34508 11.5511 7.95904 11.3815 7.67555 11.0899C7.39206 10.7983 7.23347 10.4076 7.23347 10.0009C7.23347 9.59417 7.39206 9.20349 7.67555 8.91186C7.95904 8.62024 8.34508 8.45066 8.75162 8.43916ZM16.2509 8.43916C16.4597 8.43325 16.6675 8.46927 16.8622 8.5451C17.0568 8.62093 17.2343 8.73501 17.3841 8.88062C17.5338 9.02622 17.6529 9.20038 17.7342 9.3928C17.8155 9.58522 17.8574 9.79199 17.8574 10.0009C17.8574 10.2098 17.8155 10.4165 17.7342 10.6089C17.6529 10.8014 17.5338 10.9755 17.3841 11.1211C17.2343 11.2667 17.0568 11.3808 16.8622 11.4566C16.6675 11.5325 16.4597 11.5685 16.2509 11.5626C15.8443 11.5511 15.4583 11.3815 15.1748 11.0899C14.8913 10.7983 14.7327 10.4076 14.7327 10.0009C14.7327 9.59417 14.8913 9.20349 15.1748 8.91186C15.4583 8.62024 15.8443 8.45066 16.2509 8.43916Z" fill="#ED3C7C"/>
</svg>
