<svg width="27" height="27" viewBox="0 0 27 27" fill="none" xmlns="http://www.w3.org/2000/svg">
<path d="M21.0008 8.50065C21.0008 10.4899 20.2106 12.3978 18.8039 13.8044C17.3973 15.2111 15.4895 16.0013 13.5002 16.0013C11.5109 16.0013 9.60305 15.2111 8.1964 13.8044C6.78976 12.3978 5.99951 10.4899 5.99951 8.50065C5.99951 6.51136 6.78976 4.60354 8.1964 3.19689C9.60305 1.79025 11.5109 1 13.5002 1C15.4895 1 17.3973 1.79025 18.8039 3.19689C20.2106 4.60354 21.0008 6.51136 21.0008 8.50065Z" stroke="#ED3C7C" stroke-width="2"/>
<path d="M6.6246 11.2368C5.15362 11.6168 3.83272 12.4345 2.83672 13.5818C1.84072 14.729 1.21659 16.1517 1.04692 17.6614C0.877261 19.1712 1.17007 20.6969 1.88659 22.0366C2.60311 23.3762 3.70957 24.4668 5.05951 25.1638C6.40945 25.8608 7.93923 26.1314 9.44637 25.9399C10.9535 25.7483 12.3669 25.1036 13.4996 24.091C14.6323 23.0785 15.4307 21.7459 15.7894 20.2695C16.148 18.7932 16.0498 17.2428 15.5079 15.8235" stroke="#ED3C7C" stroke-width="2"/>
<path d="M13.5 24.0917C14.3467 24.8483 15.3542 25.4027 16.4464 25.7133C17.5386 26.0238 18.687 26.0823 19.8051 25.8844C20.9233 25.6865 21.9818 25.2373 22.9011 24.5707C23.8203 23.9041 24.5762 23.0375 25.1117 22.0362C25.6473 21.0349 25.9485 19.9251 25.9927 18.7905C26.0369 17.6558 25.8229 16.526 25.3668 15.4861C24.9108 14.4462 24.2246 13.5234 23.36 12.7874C22.4954 12.0513 21.4749 11.5211 20.3756 11.2368" stroke="#ED3C7C" stroke-width="2"/>
</svg>
