<svg width="25" height="25" viewBox="0 0 25 25" fill="none" xmlns="http://www.w3.org/2000/svg">
<path fill-rule="evenodd" clip-rule="evenodd" d="M12.7907 1.84186C12.2558 1.75116 11.5256 1.74419 10.2093 1.74419C7.98023 1.74419 6.39535 1.74651 5.19535 1.90698C4.0186 2.06395 3.34302 2.36046 2.85116 2.85116C2.3593 3.34302 2.06395 4.01744 1.90698 5.18721C1.74651 6.38256 1.74419 7.95698 1.74419 10.1756V14.8267C1.74419 17.043 1.74651 18.6174 1.90698 19.8128C2.06395 20.9826 2.3593 21.657 2.85116 22.15C3.34302 22.6407 4.01744 22.936 5.18721 23.093C6.38256 23.2547 7.95698 23.2558 10.1744 23.2558H14.8256C17.043 23.2558 18.6186 23.2535 19.814 23.093C20.9826 22.936 21.657 22.6407 22.1488 22.1488C22.6407 21.657 22.936 20.9826 23.093 19.8128C23.2535 18.6186 23.2558 17.043 23.2558 14.8256V14.3174C23.2558 12.5314 23.2442 11.6849 23.0535 11.0465H19.414C18.0965 11.0465 17.0209 11.0465 16.1698 10.9326C15.2826 10.8128 14.5128 10.5547 13.8977 9.93953C13.2826 9.32442 13.0244 8.55581 12.9047 7.66628C12.7907 6.81744 12.7907 5.7407 12.7907 4.42209V1.84186ZM14.5349 2.74419V4.36046C14.5349 5.75581 14.5372 6.71395 14.6337 7.43372C14.7267 8.12907 14.8942 8.46977 15.1314 8.70581C15.3674 8.94302 15.7081 9.11046 16.4035 9.20349C17.1233 9.3 18.0814 9.30233 19.4767 9.30233H21.8256C21.3794 8.87743 20.9258 8.46032 20.4651 8.05116L15.8616 3.90814C15.4273 3.51117 14.985 3.12311 14.5349 2.74419ZM10.3779 0C11.9884 0 13.0291 6.93077e-08 13.986 0.366279C14.943 0.733721 15.7128 1.42674 16.9047 2.5L17.0291 2.61163L21.6314 6.75465L21.7767 6.88488C23.1535 8.12326 24.0442 8.92442 24.5221 9.99884C25.0012 11.0733 25.0012 12.2709 25 14.1221V14.8907C25 17.0279 25 18.7209 24.8221 20.0453C24.6384 21.4081 24.2523 22.5116 23.3826 23.3826C22.5116 24.2523 21.4081 24.6384 20.0453 24.8221C18.7198 25 17.0279 25 14.8907 25H10.1093C7.97209 25 6.27907 25 4.95465 24.8221C3.59186 24.6384 2.48837 24.2523 1.61744 23.3826C0.747674 22.5116 0.361628 21.4081 0.177907 20.0453C0 18.7198 0 17.0279 0 14.8907V10.1105C0 7.97326 0 6.28023 0.177907 4.95581C0.361628 3.59302 0.747674 2.48953 1.61744 1.6186C2.48953 0.747674 3.59535 0.362791 4.96395 0.17907C6.29419 0.00116284 7.99535 0.00116284 10.1442 0.00116284H10.2093L10.3779 0Z" fill="#ED3C7C"/>
</svg>
