<svg width="27" height="27" viewBox="0 0 27 27" fill="none" xmlns="http://www.w3.org/2000/svg">
<path d="M13.5 1.03171L25.9999 11.746V24.3C25.9999 24.7509 25.8208 25.1833 25.502 25.5021C25.1832 25.8209 24.7508 26 24.2999 26H17.2V20.7C17.2 19.7187 16.8101 18.7776 16.1163 18.0837C15.4224 17.3898 14.4813 17 13.5 17C12.5187 17 11.5776 17.3898 10.8837 18.0837C10.1898 18.7776 9.79998 19.7187 9.79998 20.7V26H2.69999C2.24913 26 1.81673 25.8209 1.49792 25.5021C1.17911 25.1833 1 24.7509 1 24.3V11.746L13.5 1.03171Z" stroke="#ED3C7C" stroke-width="2" stroke-linejoin="round"/>
</svg>
