<svg width="44" height="27" viewBox="0 0 44 27" fill="none" xmlns="http://www.w3.org/2000/svg">
<path fill-rule="evenodd" clip-rule="evenodd" d="M0 1.8455C0 0.82626 0.826261 0 1.8455 0H41.5157C42.535 0 43.3612 0.82626 43.3612 1.8455C43.3612 2.86475 42.535 3.69101 41.5157 3.69101H1.8455C0.82626 3.69101 0 2.86475 0 1.8455ZM0 13.1571C0 12.1378 0.826261 11.3116 1.8455 11.3116H41.5157C42.535 11.3116 43.3612 12.1378 43.3612 13.1571C43.3612 14.1763 42.535 15.0026 41.5157 15.0026H1.8455C0.82626 15.0026 0 14.1763 0 13.1571ZM1.8455 23.309C0.826261 23.309 0 24.1353 0 25.1545C0 26.1737 0.82626 27 1.8455 27H41.5157C42.535 27 43.3612 26.1737 43.3612 25.1545C43.3612 24.1353 42.535 23.309 41.5157 23.309H1.8455Z" fill="#ED3C7C"/>
</svg>
