<svg width="35" height="25" viewBox="0 0 35 25" fill="none" xmlns="http://www.w3.org/2000/svg">
<path d="M32.5 0H2.5C1.83696 0 1.20107 0.263392 0.732233 0.732233C0.263392 1.20107 0 1.83696 0 2.5V22.5C0 23.163 0.263392 23.7989 0.732233 24.2678C1.20107 24.7366 1.83696 25 2.5 25H32.5C33.163 25 33.7989 24.7366 34.2678 24.2678C34.7366 23.7989 35 23.163 35 22.5V2.5C35 1.83696 34.7366 1.20107 34.2678 0.732233C33.7989 0.263392 33.163 0 32.5 0ZM32.5 22.5H2.5V2.5H32.5V22.5ZM30 12.5C30 12.8315 29.8683 13.1495 29.6339 13.3839C29.3995 13.6183 29.0815 13.75 28.75 13.75H6.25C5.91848 13.75 5.60054 13.6183 5.36612 13.3839C5.1317 13.1495 5 12.8315 5 12.5C5 12.1685 5.1317 11.8505 5.36612 11.6161C5.60054 11.3817 5.91848 11.25 6.25 11.25H28.75C29.0815 11.25 29.3995 11.3817 29.6339 11.6161C29.8683 11.8505 30 12.1685 30 12.5ZM30 7.5C30 7.83152 29.8683 8.14946 29.6339 8.38388C29.3995 8.6183 29.0815 8.75 28.75 8.75H6.25C5.91848 8.75 5.60054 8.6183 5.36612 8.38388C5.1317 8.14946 5 7.83152 5 7.5C5 7.16848 5.1317 6.85054 5.36612 6.61612C5.60054 6.3817 5.91848 6.25 6.25 6.25H28.75C29.0815 6.25 29.3995 6.3817 29.6339 6.61612C29.8683 6.85054 30 7.16848 30 7.5ZM8.75 17.5C8.75 17.8315 8.6183 18.1495 8.38388 18.3839C8.14946 18.6183 7.83152 18.75 7.5 18.75H6.25C5.91848 18.75 5.60054 18.6183 5.36612 18.3839C5.1317 18.1495 5 17.8315 5 17.5C5 17.1685 5.1317 16.8505 5.36612 16.6161C5.60054 16.3817 5.91848 16.25 6.25 16.25H7.5C7.83152 16.25 8.14946 16.3817 8.38388 16.6161C8.6183 16.8505 8.75 17.1685 8.75 17.5ZM23.75 17.5C23.75 17.8315 23.6183 18.1495 23.3839 18.3839C23.1495 18.6183 22.8315 18.75 22.5 18.75H12.5C12.1685 18.75 11.8505 18.6183 11.6161 18.3839C11.3817 18.1495 11.25 17.8315 11.25 17.5C11.25 17.1685 11.3817 16.8505 11.6161 16.6161C11.8505 16.3817 12.1685 16.25 12.5 16.25H22.5C22.8315 16.25 23.1495 16.3817 23.3839 16.6161C23.6183 16.8505 23.75 17.1685 23.75 17.5ZM30 17.5C30 17.8315 29.8683 18.1495 29.6339 18.3839C29.3995 18.6183 29.0815 18.75 28.75 18.75H27.5C27.1685 18.75 26.8505 18.6183 26.6161 18.3839C26.3817 18.1495 26.25 17.8315 26.25 17.5C26.25 17.1685 26.3817 16.8505 26.6161 16.6161C26.8505 16.3817 27.1685 16.25 27.5 16.25H28.75C29.0815 16.25 29.3995 16.3817 29.6339 16.6161C29.8683 16.8505 30 17.1685 30 17.5Z" fill="#ED3C7C"/>
</svg>
