<svg width="25" height="24" viewBox="0 0 25 24" fill="none" xmlns="http://www.w3.org/2000/svg">
<path d="M24.9075 21.5185L19.8851 9.35295C19.7923 9.12829 19.635 8.93621 19.4329 8.80106C19.2309 8.66591 18.9933 8.59376 18.7503 8.59376C18.5072 8.59376 18.2696 8.66591 18.0676 8.80106C17.8656 8.93621 17.7082 9.12829 17.6155 9.35295L12.593 21.5185C12.5306 21.6677 12.4982 21.8277 12.4978 21.9895C12.4974 22.1512 12.5289 22.3114 12.5906 22.4609C12.6523 22.6104 12.743 22.7463 12.8573 22.8606C12.9717 22.975 13.1075 23.0657 13.257 23.1274C13.4065 23.1891 13.5667 23.2207 13.7285 23.2203C13.8902 23.2199 14.0503 23.1875 14.1994 23.1251C14.3486 23.0627 14.484 22.9714 14.5978 22.8565C14.7116 22.7415 14.8016 22.6053 14.8626 22.4555L15.8855 19.9783H21.615L22.6379 22.4555C22.7307 22.6802 22.888 22.8724 23.0901 23.0076C23.2922 23.1428 23.5299 23.215 23.773 23.215C23.9748 23.2148 24.1734 23.165 24.3513 23.0699C24.5292 22.9747 24.6809 22.8372 24.793 22.6695C24.9051 22.5018 24.9741 22.309 24.994 22.1083C25.0139 21.9075 24.984 21.7049 24.907 21.5185H24.9075ZM16.8995 17.5228L18.7506 13.0389L20.6016 17.5228H16.8995ZM13.1611 16.4581C13.3518 16.1946 13.4302 15.8662 13.3791 15.545C13.3279 15.2238 13.1514 14.936 12.8882 14.7449C12.8771 14.7365 12.0511 14.1237 10.8519 12.8067C13.0646 9.81111 14.3179 6.40309 14.8291 4.79925H16.63C16.9556 4.79925 17.2678 4.6699 17.4981 4.43966C17.7283 4.20942 17.8577 3.89714 17.8577 3.57153C17.8577 3.24592 17.7283 2.93365 17.4981 2.70341C17.2678 2.47317 16.9556 2.34382 16.63 2.34382H10.1565V1.22771C10.1565 0.902105 10.0272 0.58983 9.79696 0.359589C9.56672 0.129348 9.25444 0 8.92883 0C8.60322 0 8.29095 0.129348 8.06071 0.359589C7.83047 0.58983 7.70112 0.902105 7.70112 1.22771V2.34382H1.22771C0.902105 2.34382 0.58983 2.47317 0.359589 2.70341C0.129348 2.93365 0 3.24592 0 3.57153C0 3.89714 0.129348 4.20942 0.359589 4.43966C0.58983 4.6699 0.902105 4.79925 1.22771 4.79925H12.2353C11.704 6.3032 10.7258 8.67771 9.23353 10.8463C7.48069 8.52034 6.82944 7.01527 6.82442 7.003C6.6961 6.70644 6.45603 6.47243 6.1563 6.35172C5.85656 6.23101 5.52132 6.23334 5.22329 6.35819C4.92526 6.48304 4.68846 6.72036 4.56426 7.01867C4.44006 7.31697 4.43848 7.65222 4.55984 7.95169C4.59221 8.0287 5.37181 9.8619 7.50971 12.6354C7.56105 12.7018 7.61183 12.7666 7.66261 12.8313C5.47282 15.3063 3.32432 16.8415 2.42529 17.337C2.13942 17.4929 1.9272 17.756 1.83531 18.0684C1.74343 18.3808 1.7794 18.7169 1.93532 19.0028C2.09125 19.2887 2.35435 19.5009 2.66674 19.5928C2.97914 19.6847 3.31524 19.6487 3.60111 19.4928C3.72165 19.4269 6.31324 17.9922 9.2726 14.7164C10.5293 16.0602 11.3932 16.6941 11.4451 16.731C11.5757 16.8258 11.7237 16.894 11.8806 16.9316C12.0376 16.9692 12.2004 16.9754 12.3598 16.95C12.5192 16.9246 12.672 16.8681 12.8095 16.7836C12.947 16.699 13.0665 16.5883 13.1611 16.4575V16.4581Z" fill="#ED3C7C"/>
</svg>
