<svg width="42" height="27" viewBox="0 0 42 27" fill="none" xmlns="http://www.w3.org/2000/svg">
<path d="M13.7607 0.628926C13.6723 0.440883 13.5323 0.281884 13.3568 0.170513C13.1814 0.0591423 12.9779 0 12.7702 0C12.5624 0 12.3589 0.0591423 12.1835 0.170513C12.0081 0.281884 11.868 0.440883 11.7796 0.628926L0.104181 25.4391C-0.0194375 25.7019 -0.0336279 26.0029 0.0647313 26.2761C0.16309 26.5493 0.365942 26.7722 0.628661 26.8958C0.891381 27.0194 1.19245 27.0336 1.46563 26.9353C1.73881 26.8369 1.96173 26.6341 2.08535 26.3713L5.22311 19.7018H20.3172L23.455 26.3695C23.5162 26.4996 23.6024 26.6164 23.7087 26.7131C23.8151 26.8099 23.9394 26.8847 24.0747 26.9334C24.2099 26.9821 24.3535 27.0037 24.4971 26.997C24.6407 26.9902 24.7816 26.9552 24.9116 26.894C25.0417 26.8328 25.1585 26.7466 25.2552 26.6402C25.352 26.5339 25.4269 26.4095 25.4756 26.2743C25.5243 26.139 25.5459 25.9955 25.5391 25.8519C25.5323 25.7083 25.4973 25.5674 25.4361 25.4373L13.7607 0.628926ZM6.25383 17.5126L12.7702 3.66453L19.2865 17.5126H6.25383ZM34.6615 8.75609C32.4341 8.75609 30.701 9.35446 29.5116 10.5329C29.4095 10.6343 29.3284 10.7547 29.2729 10.8874C29.2174 11.0201 29.1886 11.1624 29.1881 11.3062C29.1876 11.45 29.2154 11.5925 29.2699 11.7256C29.3245 11.8587 29.4048 11.9797 29.5061 12.0818C29.7108 12.2879 29.9889 12.4042 30.2794 12.4053C30.4232 12.4058 30.5657 12.3779 30.6988 12.3234C30.8318 12.2688 30.9529 12.1886 31.0549 12.0872C31.8175 11.3302 33.0324 10.9452 34.6615 10.9452C37.2775 10.9452 39.4046 12.7458 39.4046 14.9586V16.2794C38.0707 15.1778 36.3915 14.581 34.6615 14.5938C30.8396 14.5938 27.7293 17.3758 27.7293 20.7963C27.7293 24.2169 30.8396 26.9989 34.6615 26.9989C36.3915 27.0117 38.0707 26.4149 39.4046 25.3133V25.9043C39.4046 26.1946 39.52 26.473 39.7252 26.6783C39.9305 26.8836 40.2089 26.9989 40.4992 26.9989C40.7895 26.9989 41.0679 26.8836 41.2732 26.6783C41.4785 26.473 41.5938 26.1946 41.5938 25.9043V14.9586C41.5938 11.5381 38.4925 8.75609 34.6615 8.75609ZM34.6615 24.8098C32.0455 24.8098 29.9184 23.0092 29.9184 20.7963C29.9184 18.5835 32.0455 16.7829 34.6615 16.7829C37.2775 16.7829 39.4046 18.5835 39.4046 20.7963C39.4046 23.0092 37.2775 24.8098 34.6615 24.8098Z" fill="#ED3C7C"/>
</svg>
