<svg width="23" height="20" viewBox="0 0 23 20" fill="none" xmlns="http://www.w3.org/2000/svg">
<mask id="path-1-inside-1_757_4458" fill="white">
<path d="M20.6265 10.7216L11.2582 20L1.8899 10.7216C1.27197 10.1203 0.785239 9.39758 0.460352 8.59892C0.135465 7.80027 -0.0205378 6.943 0.00216579 6.08109C0.0248694 5.21918 0.225788 4.37131 0.59227 3.59087C0.958752 2.81043 1.48286 2.11432 2.13158 1.54638C2.78031 0.978443 3.5396 0.550977 4.36165 0.290903C5.1837 0.0308283 6.05069 -0.0562209 6.90803 0.0352357C7.76537 0.126692 8.59449 0.394674 9.34318 0.822306C10.0919 1.24994 10.7439 1.82796 11.2582 2.51996C11.7748 1.83298 12.4276 1.26001 13.1757 0.836918C13.9239 0.413825 14.7513 0.149714 15.6063 0.0611155C16.4612 -0.0274831 17.3252 0.0613379 18.1443 0.322019C18.9633 0.582701 19.7197 1.00963 20.3662 1.57609C21.0126 2.14255 21.5352 2.83634 21.9012 3.61405C22.2671 4.39175 22.4687 5.23663 22.4931 6.0958C22.5175 6.95497 22.3644 7.80993 22.0432 8.60719C21.722 9.40444 21.2397 10.1268 20.6265 10.7291"/>
</mask>
<path d="M22.0339 12.1426C22.8187 11.3654 22.8248 10.099 22.0476 9.31424C21.2703 8.52943 20.004 8.52332 19.2192 9.3006L22.0339 12.1426ZM11.2582 20L9.85084 21.421C10.6303 22.193 11.8861 22.193 12.6656 21.421L11.2582 20ZM1.8899 10.7216L3.29727 9.3006C3.2931 9.29646 3.28891 9.29235 3.2847 9.28825L1.8899 10.7216ZM11.2582 2.51996L9.65302 3.713C10.0292 4.21913 10.622 4.5182 11.2527 4.51995C11.8833 4.52171 12.4778 4.22594 12.8568 3.72192L11.2582 2.51996ZM19.2251 9.30226C18.4371 10.0763 18.4257 11.3426 19.1997 12.1306C19.9737 12.9186 21.24 12.93 22.028 12.156L19.2251 9.30226ZM19.2192 9.3006L9.85084 18.579L12.6656 21.421L22.0339 12.1426L19.2192 9.3006ZM12.6656 18.579L3.29727 9.3006L0.482522 12.1426L9.85084 21.421L12.6656 18.579ZM3.2847 9.28825C2.86465 8.8795 2.53378 8.38821 2.31293 7.84531L-1.39223 9.35254C-0.963306 10.4069 -0.320708 11.3611 0.495096 12.155L3.2847 9.28825ZM2.31293 7.84531C2.09209 7.3024 1.98604 6.71965 2.00147 6.13375L-1.99714 6.02843C-2.02711 7.16634 -1.82115 8.29813 -1.39223 9.35254L2.31293 7.84531ZM2.00147 6.13375C2.01691 5.54785 2.15348 4.9715 2.40261 4.44097L-1.21807 2.74077C-1.70191 3.77113 -1.96717 4.89051 -1.99714 6.02843L2.00147 6.13375ZM2.40261 4.44097C2.65173 3.91045 3.00801 3.43725 3.44899 3.05119L0.814177 0.041576C-0.0422897 0.791384 -0.734229 1.71041 -1.21807 2.74077L2.40261 4.44097ZM3.44899 3.05119C3.88998 2.66512 4.40612 2.37454 4.96493 2.19775L3.75837 -1.61594C2.67308 -1.27258 1.67064 -0.708232 0.814177 0.041576L3.44899 3.05119ZM4.96493 2.19775C5.52373 2.02096 6.11309 1.96178 6.69589 2.02395L7.12018 -1.95348C5.98829 -2.07422 4.84366 -1.9593 3.75837 -1.61594L4.96493 2.19775ZM6.69589 2.02395C7.27868 2.08612 7.8423 2.26829 8.35123 2.55898L10.3351 -0.914369C9.34669 -1.47894 8.25206 -1.83274 7.12018 -1.95348L6.69589 2.02395ZM8.35123 2.55898C8.86017 2.84967 9.3034 3.24259 9.65302 3.713L12.8634 1.32692C12.1844 0.41332 11.3236 -0.349796 10.3351 -0.914369L8.35123 2.55898ZM12.8568 3.72192C13.2079 3.25493 13.6516 2.86544 14.1602 2.57783L12.1912 -0.903994C11.2035 -0.345414 10.3417 0.411035 9.65969 1.31801L12.8568 3.72192ZM14.1602 2.57783C14.6688 2.29022 15.2313 2.11069 15.8124 2.05046L15.4001 -1.92823C14.2714 -1.81126 13.179 -1.46257 12.1912 -0.903994L14.1602 2.57783ZM15.8124 2.05046C16.3936 1.99023 16.9809 2.05061 17.5377 2.22782L18.7509 -1.58378C17.6695 -1.92794 16.5288 -2.0452 15.4001 -1.92823L15.8124 2.05046ZM17.5377 2.22782C18.0945 2.40502 18.6086 2.69524 19.0481 3.0803L21.6843 0.071881C20.8308 -0.675976 19.8322 -1.23962 18.7509 -1.58378L17.5377 2.22782ZM19.0481 3.0803C19.4875 3.46536 19.8427 3.93698 20.0915 4.46565L23.7108 2.76245C23.2276 1.7357 22.5377 0.819737 21.6843 0.071881L19.0481 3.0803ZM20.0915 4.46565C20.3403 4.99431 20.4773 5.56863 20.4939 6.15267L24.4923 6.03893C24.46 4.90463 24.194 3.7892 23.7108 2.76245L20.0915 4.46565ZM20.4939 6.15267C20.5105 6.73671 20.4064 7.31789 20.1881 7.85984L23.8983 9.35453C24.3224 8.30197 24.5246 7.17322 24.4923 6.03893L20.4939 6.15267ZM20.1881 7.85984C19.9698 8.40179 19.6419 8.89284 19.2251 9.30226L22.028 12.156C22.8376 11.3608 23.4743 10.4071 23.8983 9.35453L20.1881 7.85984Z" fill="#ED3C7C" mask="url(#path-1-inside-1_757_4458)"/>
</svg>
