<svg width="25" height="28" viewBox="0 0 25 28" fill="none" xmlns="http://www.w3.org/2000/svg">
<path fill-rule="evenodd" clip-rule="evenodd" d="M12.5 0C15.8152 0 18.9946 1.31696 21.3388 3.66117C23.683 6.00537 25 9.18479 25 12.5C25 16.7694 22.6722 20.2639 20.2194 22.7708C18.9938 24.0096 17.6566 25.1328 16.225 26.1264L15.6333 26.5292L15.3556 26.7139L14.8319 27.0472L14.3653 27.3319L13.7875 27.6681C13.3951 27.8914 12.9515 28.0088 12.5 28.0088C12.0485 28.0088 11.6049 27.8914 11.2125 27.6681L10.6347 27.3319L9.9125 26.8875L9.64583 26.7139L9.07639 26.3347C7.53191 25.2893 6.09315 24.0957 4.78056 22.7708C2.32778 20.2625 0 16.7694 0 12.5C0 9.18479 1.31696 6.00537 3.66116 3.66117C6.00537 1.31696 9.18479 0 12.5 0ZM12.5 2.77778C9.92151 2.77778 7.44862 3.80208 5.62535 5.62535C3.80208 7.44862 2.77778 9.92151 2.77778 12.5C2.77778 15.725 4.54444 18.5556 6.76528 20.8278C7.72031 21.7943 8.75242 22.6815 9.85139 23.4806L10.4875 23.9333C10.6931 24.0764 10.8903 24.2097 11.0806 24.3333L11.6222 24.6806L12.0986 24.9708L12.5 25.2056L13.1319 24.8319L13.6417 24.5125C13.9125 24.3403 14.2042 24.1472 14.5125 23.9333L15.1486 23.4806C16.2476 22.6815 17.2797 21.7943 18.2347 20.8278C20.4556 18.5569 22.2222 15.725 22.2222 12.5C22.2222 9.92151 21.1979 7.44862 19.3746 5.62535C17.5514 3.80208 15.0785 2.77778 12.5 2.77778ZM12.5 6.94444C13.9734 6.94444 15.3865 7.52976 16.4284 8.57163C17.4702 9.6135 18.0556 11.0266 18.0556 12.5C18.0556 13.9734 17.4702 15.3865 16.4284 16.4284C15.3865 17.4702 13.9734 18.0556 12.5 18.0556C11.0266 18.0556 9.6135 17.4702 8.57163 16.4284C7.52976 15.3865 6.94444 13.9734 6.94444 12.5C6.94444 11.0266 7.52976 9.6135 8.57163 8.57163C9.6135 7.52976 11.0266 6.94444 12.5 6.94444ZM12.5 9.72222C11.7633 9.72222 11.0567 10.0149 10.5358 10.5358C10.0149 11.0567 9.72222 11.7633 9.72222 12.5C9.72222 13.2367 10.0149 13.9433 10.5358 14.4642C11.0567 14.9851 11.7633 15.2778 12.5 15.2778C13.2367 15.2778 13.9433 14.9851 14.4642 14.4642C14.9851 13.9433 15.2778 13.2367 15.2778 12.5C15.2778 11.7633 14.9851 11.0567 14.4642 10.5358C13.9433 10.0149 13.2367 9.72222 12.5 9.72222Z" fill="#ED3C7C"/>
</svg>
