<svg width="27" height="22" viewBox="0 0 27 22" fill="none" xmlns="http://www.w3.org/2000/svg">
<path d="M2.38889 2.38889L10.8722 8.79445L10.875 8.79722C11.8167 9.4875 12.2875 9.83333 12.8042 9.96667C13.2605 10.0848 13.7395 10.0848 14.1958 9.96667C14.7125 9.83333 15.1847 9.4875 16.1292 8.79445C16.1292 8.79445 21.5694 4.61944 24.6111 2.38889M1 16V5.44444C1 3.88889 1 3.11111 1.30278 2.51667C1.56944 1.99306 1.99306 1.56944 2.51667 1.30278C3.11111 1 3.88889 1 5.44444 1H21.5556C23.1111 1 23.8889 1 24.4819 1.30278C25.0056 1.56944 25.4306 1.99306 25.6972 2.51667C26 3.10972 26 3.8875 26 5.44028V16.0056C26 17.5583 26 18.3333 25.6972 18.9278C25.4304 19.4505 25.005 19.8754 24.4819 20.1417C23.8889 20.4444 23.1125 20.4444 21.5597 20.4444H5.44028C3.8875 20.4444 3.10972 20.4444 2.51667 20.1417C1.99402 19.8754 1.56909 19.4504 1.30278 18.9278C1 18.3333 1 17.5556 1 16Z" stroke="#ED3C7C" stroke-width="2" stroke-linecap="round" stroke-linejoin="round"/>
</svg>
