<svg width="25" height="24" viewBox="0 0 25 24" fill="none" xmlns="http://www.w3.org/2000/svg">
<path d="M7.69231 5.77692L7.69038 13.4558C7.69047 13.6297 7.73774 13.8003 7.82714 13.9495C7.91655 14.0987 8.04474 14.2209 8.19808 14.303C8.35141 14.3851 8.52414 14.424 8.69787 14.4157C8.8716 14.4074 9.03982 14.3521 9.18462 14.2558L14.95 10.4173C15.0817 10.3295 15.1897 10.2105 15.2643 10.071C15.339 9.93142 15.3781 9.77559 15.3781 9.61731C15.3781 9.45903 15.339 9.30319 15.2643 9.16364C15.1897 9.02408 15.0817 8.90512 14.95 8.81731L9.18654 4.97692C9.04174 4.88057 8.87352 4.82529 8.69979 4.81698C8.52606 4.80867 8.35333 4.84764 8.2 4.92973C8.04666 5.01182 7.91847 5.13397 7.82907 5.28316C7.73966 5.43235 7.6924 5.603 7.69231 5.77692ZM0 4.32692C0 3.17935 0.455871 2.07878 1.26733 1.26733C2.07878 0.455871 3.17935 0 4.32692 0H16.8269C17.9745 0 19.0751 0.455871 19.8865 1.26733C20.698 2.07878 21.1538 3.17935 21.1538 4.32692V14.9038C21.1538 16.0514 20.698 17.152 19.8865 17.9634C19.0751 18.7749 17.9745 19.2308 16.8269 19.2308H4.32692C3.17935 19.2308 2.07878 18.7749 1.26733 17.9634C0.455871 17.152 0 16.0514 0 14.9038V4.32692ZM4.32692 1.92308C3 1.92308 1.92308 3 1.92308 4.32692V14.9038C1.92308 16.2308 3 17.3077 4.32692 17.3077H16.8269C18.1538 17.3077 19.2308 16.2308 19.2308 14.9038V4.32692C19.2308 3 18.1538 1.92308 16.8269 1.92308H4.32692ZM3.84615 21.1538C4.72308 22.3212 6.11923 23.0769 7.69231 23.0769H17.7885C19.7011 23.0769 21.5354 22.3171 22.8878 20.9647C24.2402 19.6123 25 17.778 25 15.8654V7.69231C25 6.11923 24.2442 4.72308 23.0769 3.84615V15.8654C23.0769 17.268 22.5197 18.6131 21.528 19.6049C20.5362 20.5967 19.191 21.1538 17.7885 21.1538H3.84615Z" fill="#ED3C7C"/>
</svg>
