<svg width="25" height="25" viewBox="0 0 25 25" fill="none" xmlns="http://www.w3.org/2000/svg">
<path d="M12.5 25C10.7708 25 9.14583 24.6717 7.625 24.015C6.10417 23.3583 4.78125 22.4679 3.65625 21.3437C2.53125 20.2196 1.64083 18.8967 0.985 17.375C0.329167 15.8533 0.000833333 14.2283 0 12.5C0 11.6042 0.0937499 10.7237 0.28125 9.85875C0.46875 8.99375 0.739583 8.15542 1.09375 7.34375L3.03125 9.28125C2.86458 9.82292 2.73458 10.3592 2.64125 10.89C2.54792 11.4208 2.50083 11.9575 2.5 12.5C2.5 15.2917 3.46875 17.6562 5.40625 19.5937C7.34375 21.5312 9.70833 22.5 12.5 22.5C15.2917 22.5 17.6562 21.5312 19.5937 19.5937C21.5312 17.6562 22.5 15.2917 22.5 12.5C22.5 9.70833 21.5312 7.34375 19.5937 5.40625C17.6562 3.46875 15.2917 2.5 12.5 2.5C11.9375 2.5 11.3908 2.54667 10.86 2.64C10.3292 2.73333 9.80292 2.86375 9.28125 3.03125L7.375 1.125C8.20833 0.75 9.04167 0.46875 9.875 0.28125C10.7083 0.0937499 11.5833 0 12.5 0C14.2292 0 15.8542 0.327917 17.375 0.98375C18.8958 1.63958 20.2187 2.53042 21.3437 3.65625C22.4687 4.78208 23.3596 6.105 24.0162 7.625C24.6729 9.145 25.0008 10.77 25 12.5C24.9992 14.23 24.6708 15.855 24.015 17.375C23.3592 18.895 22.4687 20.2179 21.3437 21.3437C20.2187 22.4696 18.8958 23.3604 17.375 24.0162C15.8542 24.6721 14.2292 25 12.5 25ZM4.375 6.25C3.85417 6.25 3.41167 6.06792 3.0475 5.70375C2.68333 5.33958 2.50083 4.89667 2.5 4.375C2.49917 3.85333 2.68167 3.41083 3.0475 3.0475C3.41333 2.68417 3.85583 2.50167 4.375 2.5C4.89417 2.49833 5.33708 2.68083 5.70375 3.0475C6.07042 3.41417 6.2525 3.85667 6.25 4.375C6.2475 4.89333 6.06542 5.33625 5.70375 5.70375C5.34208 6.07125 4.89917 6.25333 4.375 6.25ZM5 12.5C5 10.4167 5.72917 8.64583 7.1875 7.1875C8.64583 5.72917 10.4167 5 12.5 5C14.5833 5 16.3542 5.72917 17.8125 7.1875C19.2708 8.64583 20 10.4167 20 12.5C20 14.5833 19.2708 16.3542 17.8125 17.8125C16.3542 19.2708 14.5833 20 12.5 20C10.4167 20 8.64583 19.2708 7.1875 17.8125C5.72917 16.3542 5 14.5833 5 12.5Z" fill="#ED3C7C"/>
</svg>
