<svg width="27" height="27" viewBox="0 0 27 27" fill="none" xmlns="http://www.w3.org/2000/svg">
<path fill-rule="evenodd" clip-rule="evenodd" d="M13.8856 0C12.8204 0 11.957 0.86345 11.957 1.92857V2.12976C7.77005 3.017 4.62836 6.73448 4.62836 11.1857V18.1285H1.92857C0.863449 18.1285 0 18.992 0 20.0571C0 21.1222 0.86345 21.9857 1.92857 21.9857H24.6857C25.7508 21.9857 26.6142 21.1222 26.6142 20.0571C26.6142 18.992 25.7508 18.1285 24.6857 18.1285H23.1426V11.1857C23.1426 6.73452 20.001 3.01709 15.8141 2.12979V1.92857C15.8141 0.863448 14.9507 0 13.8856 0ZM10.414 23.7214C10.414 25.5321 11.8818 27 13.6925 27C15.5032 27 16.9711 25.5321 16.9711 23.7214V23.1429H10.414V23.7214Z" fill="#ED3C7C"/>
</svg>
