<svg width="25" height="29" viewBox="0 0 25 29" fill="none" xmlns="http://www.w3.org/2000/svg">
<path d="M11.2265 10.0879C10.1653 10.8751 8.87983 11.3019 7.55845 11.3058C6.1832 11.3058 4.92148 10.8447 3.88916 10.0879C3.00229 10.8269 2.11778 11.8853 1.3941 13.1896C-0.288594 16.2203 -0.474245 19.3291 0.980224 20.1355C1.62823 20.5045 2.31171 20.2278 3.01648 19.549C2.88454 20.2803 2.81845 21.0219 2.81901 21.765C2.81901 25.2392 4.16705 28.0464 5.82609 28.0464C6.82648 28.0464 7.32195 27.0236 7.55963 25.4591C7.79613 27.0129 8.29278 28.0464 9.28607 28.0464C10.938 28.0464 12.2967 25.238 12.2967 21.765C12.2967 20.9846 12.2234 20.2396 12.098 19.5502C12.8075 20.2301 13.4887 20.5116 14.139 20.1379C15.59 19.3314 15.4019 16.2238 13.7204 13.1919C12.9991 11.8864 12.1122 10.8293 11.2254 10.0902L11.2265 10.0879ZM7.55726 10.1233C8.22197 10.1231 8.88013 9.99196 9.49415 9.73737C10.1082 9.48278 10.666 9.10975 11.1359 8.63956C11.6057 8.16938 11.9784 7.61125 12.2325 6.99705C12.4867 6.38285 12.6174 5.72461 12.6172 5.0599C12.6169 4.39519 12.4858 3.73704 12.2312 3.12302C11.9766 2.50899 11.6036 1.95113 11.1334 1.48128C10.6632 1.01142 10.1051 0.638776 9.49087 0.384618C8.87667 0.130461 8.21843 -0.00023263 7.55372 3.10838e-07C6.21096 0.000470765 4.92339 0.534328 3.97426 1.48413C3.02512 2.43393 2.49217 3.72188 2.49264 5.06463C2.49311 6.40738 3.02696 7.69495 3.97677 8.64409C4.92657 9.59323 6.21451 10.1262 7.55726 10.1257V10.1233ZM20.1709 16.5916C21.9541 16.5916 23.4015 15.1442 23.4015 13.3587C23.4015 11.5731 21.9518 10.1233 20.1698 10.1233C19.3118 10.1237 18.4891 10.4646 17.8824 11.0713C17.2757 11.678 16.9348 12.5007 16.9345 13.3587C16.9351 14.2166 17.2763 15.0392 17.8832 15.6457C18.4901 16.2521 19.313 16.5916 20.1709 16.5916ZM24.1087 18.551C23.6475 17.7173 23.0822 17.0409 22.5147 16.5679C21.8525 17.0528 21.0484 17.3484 20.1698 17.3484C19.29 17.3484 18.4835 17.0528 17.8249 16.5679C17.2573 17.0409 16.692 17.7173 16.2285 18.551C15.1524 20.4879 15.0342 22.4745 15.9636 22.9901C16.3775 23.2266 16.815 23.0492 17.2644 22.6164C17.1821 23.0837 17.141 23.5574 17.1414 24.0319C17.1414 26.2549 18.0022 28.0488 19.0629 28.0488C19.7015 28.0488 20.0208 27.3949 20.1721 26.3957C20.3235 27.389 20.6404 28.0476 21.2766 28.0476C22.3325 28.0476 23.2005 26.2526 23.2005 24.0319C23.2005 23.5352 23.1532 23.0575 23.0728 22.6176C23.5257 23.0516 23.962 23.2325 24.3783 22.9924C25.303 22.4792 25.1824 20.4915 24.1087 18.5545V18.551Z" fill="#ED3C7C"/>
</svg>
