<svg width="25" height="25" viewBox="0 0 25 25" fill="none" xmlns="http://www.w3.org/2000/svg">
<path d="M12.5 0C5.59644 0 0 5.59644 0 12.5C0 19.4036 5.59644 25 12.5 25C19.4036 25 25 19.4036 25 12.5C25 5.59644 19.4036 0 12.5 0ZM12.41 5.72204C14.098 5.73008 15.641 6.80654 16.2964 8.30842C16.5206 8.83152 16.6397 9.3689 16.6397 9.95179V11.438H18.6874V19.278H6.31256V11.438H8.1955C8.17844 10.3879 8.15683 9.18652 8.52508 8.30838C9.24113 6.72694 10.7219 5.714 12.41 5.72204ZM12.3184 8.21838C11.3834 8.23804 10.7668 8.94906 10.6765 9.95175V11.438H14.1586V9.93652C14.1157 8.98567 13.396 8.24456 12.4099 8.21838C12.3794 8.21766 12.3489 8.21766 12.3184 8.21838Z" fill="#ED3C7C"/>
</svg>
