<svg width="26" height="25" viewBox="0 0 26 25" fill="none" xmlns="http://www.w3.org/2000/svg">
<path d="M25.2618 11.4415L20.0526 15.9364L21.6397 22.6586C21.7272 23.0235 21.7047 23.4062 21.5749 23.7583C21.4451 24.1104 21.2138 24.4161 20.9103 24.6368C20.6068 24.8576 20.2447 24.9834 19.8698 24.9985C19.4948 25.0135 19.1238 24.9171 18.8036 24.7214L12.9577 21.1236L7.10842 24.7214C6.78826 24.916 6.41769 25.0115 6.04336 24.9959C5.66904 24.9803 5.3077 24.8543 5.00484 24.6337C4.70199 24.4132 4.47116 24.1079 4.34143 23.7565C4.2117 23.405 4.18886 23.023 4.27579 22.6586L5.86864 15.9364L0.659467 11.4415C0.376201 11.1967 0.171338 10.8738 0.0704629 10.5133C-0.0304126 10.1527 -0.0228301 9.77043 0.0922633 9.41416C0.207357 9.05789 0.42486 8.74342 0.717611 8.51003C1.01036 8.27663 1.36538 8.13466 1.73834 8.10183L8.56814 7.55082L11.2028 1.1748C11.3454 0.827307 11.5882 0.530073 11.9001 0.320884C12.2121 0.111695 12.5792 0 12.9548 0C13.3305 0 13.6976 0.111695 14.0096 0.320884C14.3215 0.530073 14.5642 0.827307 14.7069 1.1748L17.3404 7.55082L24.1702 8.10183C24.5439 8.13344 24.8999 8.27462 25.1938 8.50769C25.4876 8.74076 25.7061 9.05536 25.8219 9.41206C25.9377 9.76876 25.9457 10.1517 25.8448 10.5129C25.7439 10.8741 25.5387 11.1976 25.2548 11.4426L25.2618 11.4415Z" fill="#ED3C7C"/>
</svg>
