<svg width="25" height="25" viewBox="0 0 25 25" fill="none" xmlns="http://www.w3.org/2000/svg">
<path d="M22.2879 2.7165C20.8172 1.24373 18.8931 0.309447 16.8262 0.0644063C14.7593 -0.180634 12.6702 0.277866 10.8958 1.36592C9.12153 2.45397 7.76555 4.10811 7.04673 6.06141C6.32791 8.01471 6.28817 10.1532 6.93394 12.1319L0.542826 18.523C0.370119 18.6943 0.233193 18.8983 0.140007 19.123C0.04682 19.3477 -0.000767858 19.5887 9.36898e-06 19.832V23.1526C9.36898e-06 23.6437 0.195112 24.1147 0.542396 24.462C0.889681 24.8093 1.3607 25.0044 1.85183 25.0044H5.55549C5.80105 25.0044 6.03656 24.9068 6.2102 24.7332C6.38385 24.5595 6.4814 24.324 6.4814 24.0785V22.2266H8.33322C8.57879 22.2266 8.8143 22.1291 8.98794 21.9554C9.16159 21.7818 9.25914 21.5463 9.25914 21.3007V19.4489H11.111C11.2326 19.449 11.353 19.4251 11.4654 19.3787C11.5778 19.3322 11.68 19.264 11.766 19.1781L12.8725 18.0704C13.7986 18.3717 14.7666 18.5244 15.7405 18.523H15.7521C17.5824 18.5208 19.3711 17.9761 20.892 16.9578C22.413 15.9396 23.598 14.4933 24.2974 12.8019C24.9968 11.1104 25.1792 9.24963 24.8215 7.45457C24.4638 5.65951 23.5822 4.01072 22.2879 2.7165ZM18.0553 8.80091C17.6891 8.80091 17.331 8.6923 17.0265 8.48882C16.722 8.28534 16.4846 7.99612 16.3444 7.65774C16.2043 7.31937 16.1676 6.94703 16.2391 6.58781C16.3105 6.22859 16.4869 5.89863 16.7459 5.63964C17.0049 5.38066 17.3348 5.20429 17.694 5.13284C18.0533 5.06139 18.4256 5.09806 18.764 5.23822C19.1023 5.37838 19.3916 5.61573 19.595 5.92026C19.7985 6.22479 19.9071 6.58283 19.9071 6.94908C19.9071 7.44022 19.712 7.91123 19.3647 8.25852C19.0175 8.6058 18.5464 8.80091 18.0553 8.80091Z" fill="#ED3C7C"/>
</svg>
