<svg width="25" height="25" viewBox="0 0 25 25" fill="none" xmlns="http://www.w3.org/2000/svg">
<path d="M12.5 0C10.0277 0 7.61099 0.733112 5.55538 2.10663C3.49976 3.48015 1.89761 5.43238 0.951511 7.71646C0.00541606 10.0005 -0.242126 12.5139 0.24019 14.9386C0.722505 17.3634 1.91301 19.5907 3.66117 21.3388C5.40933 23.087 7.63661 24.2775 10.0614 24.7598C12.4861 25.2421 14.9995 24.9946 17.2835 24.0485C19.5676 23.1024 21.5199 21.5002 22.8934 19.4446C24.2669 17.389 25 14.9723 25 12.5C24.9965 9.18587 23.6784 6.00848 21.335 3.66503C18.9915 1.32158 15.8141 0.00349978 12.5 0ZM12.5 23.0769C10.4081 23.0769 8.36315 22.4566 6.62378 21.2944C4.88441 20.1322 3.52874 18.4803 2.7282 16.5476C1.92766 14.6149 1.7182 12.4883 2.12631 10.4365C2.53443 8.38482 3.54178 6.50019 5.02099 5.02099C6.5002 3.54178 8.38483 2.53442 10.4365 2.12631C12.4883 1.7182 14.6149 1.92765 16.5476 2.7282C18.4803 3.52874 20.1322 4.88441 21.2944 6.62377C22.4566 8.36314 23.0769 10.4081 23.0769 12.5C23.0737 15.3042 21.9584 17.9926 19.9755 19.9755C17.9926 21.9584 15.3042 23.0737 12.5 23.0769ZM18.2692 12.5C18.2692 12.755 18.1679 12.9996 17.9876 13.1799C17.8073 13.3602 17.5627 13.4615 17.3077 13.4615H13.4615V17.3077C13.4615 17.5627 13.3602 17.8073 13.1799 17.9876C12.9996 18.1679 12.755 18.2692 12.5 18.2692C12.245 18.2692 12.0004 18.1679 11.8201 17.9876C11.6398 17.8073 11.5385 17.5627 11.5385 17.3077V13.4615H7.69231C7.4373 13.4615 7.19272 13.3602 7.0124 13.1799C6.83208 12.9996 6.73077 12.755 6.73077 12.5C6.73077 12.245 6.83208 12.0004 7.0124 11.8201C7.19272 11.6398 7.4373 11.5385 7.69231 11.5385H11.5385V7.69231C11.5385 7.43729 11.6398 7.19272 11.8201 7.0124C12.0004 6.83207 12.245 6.73077 12.5 6.73077C12.755 6.73077 12.9996 6.83207 13.1799 7.0124C13.3602 7.19272 13.4615 7.43729 13.4615 7.69231V11.5385H17.3077C17.5627 11.5385 17.8073 11.6398 17.9876 11.8201C18.1679 12.0004 18.2692 12.245 18.2692 12.5Z" fill="#ED3C7C"/>
</svg>
