<svg width="25" height="25" viewBox="0 0 25 25" fill="none" xmlns="http://www.w3.org/2000/svg">
<path d="M23.4337 0.61788L24.112 1.29612C25.0466 2.23186 24.9052 3.89067 23.7935 5.00114L9.80688 18.9878L5.27532 20.6455C4.70629 20.8547 4.1522 20.5834 4.03955 20.042C4.00147 19.8455 4.0194 19.6424 4.09128 19.4557L5.78113 14.885L19.7287 0.936308C20.8403 -0.174165 22.4991 -0.31786 23.4337 0.61788ZM9.19646 2.00885C9.34742 2.00885 9.49691 2.03858 9.63638 2.09635C9.77585 2.15412 9.90258 2.2388 10.0093 2.34554C10.1161 2.45229 10.2007 2.57902 10.2585 2.71849C10.3163 2.85796 10.346 3.00744 10.346 3.1584C10.346 3.30936 10.3163 3.45885 10.2585 3.59832C10.2007 3.73779 10.1161 3.86452 10.0093 3.97126C9.90258 4.07801 9.77585 4.16269 9.63638 4.22046C9.49691 4.27823 9.34742 4.30796 9.19646 4.30796H4.59823C3.98847 4.30796 3.40368 4.55019 2.97251 4.98136C2.54134 5.41252 2.29912 5.99731 2.29912 6.60708V20.4018C2.29912 21.0115 2.54134 21.5963 2.97251 22.0275C3.40368 22.4587 3.98847 22.7009 4.59823 22.7009H18.3929C19.0027 22.7009 19.5875 22.4587 20.0186 22.0275C20.4498 21.5963 20.692 21.0115 20.692 20.4018V15.8035C20.692 15.4987 20.8132 15.2063 21.0287 14.9907C21.2443 14.7751 21.5367 14.654 21.8416 14.654C22.1465 14.654 22.4389 14.7751 22.6545 14.9907C22.87 15.2063 22.9912 15.4987 22.9912 15.8035V20.4018C22.9912 21.6213 22.5067 22.7909 21.6444 23.6532C20.782 24.5155 19.6124 25 18.3929 25H4.59823C3.3787 25 2.20913 24.5155 1.34679 23.6532C0.484455 22.7909 0 21.6213 0 20.4018V6.60708C0 5.38755 0.484455 4.21797 1.34679 3.35564C2.20913 2.4933 3.3787 2.00885 4.59823 2.00885H9.19646Z" fill="#ED3C7C"/>
</svg>
