<svg width="25" height="25" viewBox="0 0 25 25" fill="none" xmlns="http://www.w3.org/2000/svg">
<path d="M12.5 1.5625C11.0637 1.5625 9.6414 1.84541 8.3144 2.39507C6.9874 2.94473 5.78166 3.75038 4.76602 4.76602C3.75038 5.78166 2.94473 6.9874 2.39507 8.3144C1.84541 9.6414 1.5625 11.0637 1.5625 12.5C1.5625 13.9363 1.84541 15.3586 2.39507 16.6856C2.94473 18.0126 3.75038 19.2183 4.76602 20.234C5.78166 21.2496 6.9874 22.0553 8.3144 22.6049C9.6414 23.1546 11.0637 23.4375 12.5 23.4375C15.4008 23.4375 18.1828 22.2852 20.234 20.234C22.2852 18.1828 23.4375 15.4008 23.4375 12.5C23.4375 9.59919 22.2852 6.8172 20.234 4.76602C18.1828 2.71484 15.4008 1.5625 12.5 1.5625ZM0 12.5C0 9.18479 1.31696 6.00537 3.66117 3.66117C6.00537 1.31696 9.18479 0 12.5 0C15.8152 0 18.9946 1.31696 21.3388 3.66117C23.683 6.00537 25 9.18479 25 12.5C25 15.8152 23.683 18.9946 21.3388 21.3388C18.9946 23.683 15.8152 25 12.5 25C9.18479 25 6.00537 23.683 3.66117 21.3388C1.31696 18.9946 0 15.8152 0 12.5ZM7.8125 9.375C7.8125 8.9606 7.97712 8.56317 8.27015 8.27015C8.56317 7.97712 8.9606 7.8125 9.375 7.8125H15.625C16.0394 7.8125 16.4368 7.97712 16.7299 8.27015C17.0229 8.56317 17.1875 8.9606 17.1875 9.375V15.625C17.1875 16.0394 17.0229 16.4368 16.7299 16.7299C16.4368 17.0229 16.0394 17.1875 15.625 17.1875H9.375C8.9606 17.1875 8.56317 17.0229 8.27015 16.7299C7.97712 16.4368 7.8125 16.0394 7.8125 15.625V9.375Z" fill="#ED3C7C"/>
</svg>
