<svg width="20" height="16" viewBox="0 0 20 16" fill="none" xmlns="http://www.w3.org/2000/svg">
<path d="M7.22447 1.57668C7.39008 1.39895 7.48024 1.16389 7.47595 0.921C7.47167 0.678113 7.37327 0.446372 7.2015 0.274599C7.02973 0.102826 6.79799 0.00443151 6.5551 0.000146065C6.31221 -0.00413938 6.07714 0.0860183 5.89942 0.251625L0.274186 5.87686C0.0986161 6.05265 0 6.29094 0 6.53938C0 6.78783 0.0986161 7.02612 0.274186 7.20191L5.89942 12.8271C6.07714 12.9928 6.31221 13.0829 6.5551 13.0786C6.79799 13.0743 7.02973 12.9759 7.2015 12.8042C7.37327 12.6324 7.47167 12.4007 7.47595 12.1578C7.48024 11.9149 7.39008 11.6798 7.22447 11.5021L3.19931 7.47692H10.9371C12.8434 7.47692 14.6717 8.23421 16.0197 9.58218C17.3676 10.9302 18.1249 12.7584 18.1249 14.6647C18.1249 14.9134 18.2237 15.1518 18.3995 15.3277C18.5753 15.5035 18.8138 15.6023 19.0625 15.6023C19.3111 15.6023 19.5496 15.5035 19.7254 15.3277C19.9012 15.1518 20 14.9134 20 14.6647C20 12.2611 19.0452 9.95592 17.3455 8.2563C15.6459 6.55668 13.3408 5.60185 10.9371 5.60185H3.19931L7.22447 1.57668Z" fill="#ED3C7C"/>
</svg>
