<svg width="25" height="25" viewBox="0 0 25 25" fill="none" xmlns="http://www.w3.org/2000/svg">
<path d="M12.5 19.4444C12.8935 19.4444 13.2236 19.3111 13.4903 19.0444C13.7569 18.7778 13.8898 18.4481 13.8889 18.0556C13.888 17.663 13.7546 17.3333 13.4889 17.0667C13.2231 16.8 12.8935 16.6667 12.5 16.6667C12.1065 16.6667 11.7769 16.8 11.5111 17.0667C11.2454 17.3333 11.112 17.663 11.1111 18.0556C11.1102 18.4481 11.2435 18.7782 11.5111 19.0458C11.7787 19.3134 12.1083 19.4463 12.5 19.4444ZM11.1111 13.8889H13.8889V5.55556H11.1111V13.8889ZM7.29167 25L0 17.7083V7.29167L7.29167 0H17.7083L25 7.29167V17.7083L17.7083 25H7.29167Z" fill="#ED3C7C"/>
</svg>
