<svg width="19" height="20" viewBox="0 0 19 20" fill="none" xmlns="http://www.w3.org/2000/svg">
<path d="M15.0602 14.1365C14.2972 14.1365 13.6145 14.4378 13.0924 14.9096L5.93373 10.743C5.98394 10.512 6.0241 10.2811 6.0241 10.0402C6.0241 9.7992 5.98394 9.56827 5.93373 9.33735L13.012 5.21084C13.5542 5.71285 14.2671 6.0241 15.0602 6.0241C16.7269 6.0241 18.0723 4.67871 18.0723 3.01205C18.0723 1.34538 16.7269 0 15.0602 0C13.3936 0 12.0482 1.34538 12.0482 3.01205C12.0482 3.25301 12.0884 3.48394 12.1386 3.71486L5.06024 7.84137C4.51807 7.33936 3.80522 7.02811 3.01205 7.02811C1.34538 7.02811 0 8.37349 0 10.0402C0 11.7068 1.34538 13.0522 3.01205 13.0522C3.80522 13.0522 4.51807 12.741 5.06024 12.239L12.2088 16.4157C12.1586 16.6265 12.1285 16.8474 12.1285 17.0683C12.1285 18.6847 13.4438 20 15.0602 20C16.6767 20 17.992 18.6847 17.992 17.0683C17.992 15.4518 16.6767 14.1365 15.0602 14.1365ZM15.0602 2.00803C15.6124 2.00803 16.0643 2.45984 16.0643 3.01205C16.0643 3.56426 15.6124 4.01606 15.0602 4.01606C14.508 4.01606 14.0562 3.56426 14.0562 3.01205C14.0562 2.45984 14.508 2.00803 15.0602 2.00803ZM3.01205 11.0442C2.45984 11.0442 2.00803 10.5924 2.00803 10.0402C2.00803 9.48795 2.45984 9.03614 3.01205 9.03614C3.56426 9.03614 4.01606 9.48795 4.01606 10.0402C4.01606 10.5924 3.56426 11.0442 3.01205 11.0442ZM15.0602 18.0924C14.508 18.0924 14.0562 17.6406 14.0562 17.0884C14.0562 16.5361 14.508 16.0843 15.0602 16.0843C15.6124 16.0843 16.0643 16.5361 16.0643 17.0884C16.0643 17.6406 15.6124 18.0924 15.0602 18.0924Z" fill="#ED3C7C"/>
</svg>
