<svg width="25" height="32" viewBox="0 0 25 32" fill="none" xmlns="http://www.w3.org/2000/svg">
<path d="M0 15.625C0 16.0394 0.16462 16.4368 0.457646 16.7299C0.750672 17.0229 1.1481 17.1875 1.5625 17.1875H13.4219L9.82812 20.7656C9.68167 20.9109 9.56543 21.0837 9.48611 21.2741C9.40678 21.4645 9.36594 21.6687 9.36594 21.875C9.36594 22.0813 9.40678 22.2855 9.48611 22.4759C9.56543 22.6663 9.68167 22.8391 9.82812 22.9844C9.97338 23.1308 10.1462 23.2471 10.3366 23.3264C10.527 23.4057 10.7312 23.4466 10.9375 23.4466C11.1438 23.4466 11.348 23.4057 11.5384 23.3264C11.7288 23.2471 11.9016 23.1308 12.0469 22.9844L18.2969 16.7344C18.4391 16.5858 18.5506 16.4106 18.625 16.2188C18.7813 15.8383 18.7813 15.4117 18.625 15.0313C18.5506 14.8395 18.4391 14.6642 18.2969 14.5156L12.0469 8.26563C11.9012 8.11994 11.7282 8.00438 11.5379 7.92553C11.3475 7.84669 11.1435 7.80611 10.9375 7.80611C10.7315 7.80611 10.5275 7.84669 10.3371 7.92553C10.1468 8.00438 9.97381 8.11994 9.82812 8.26563C9.68244 8.41131 9.56688 8.58426 9.48803 8.77461C9.40919 8.96496 9.36861 9.16897 9.36861 9.375C9.36861 9.58103 9.40919 9.78504 9.48803 9.97539C9.56688 10.1657 9.68244 10.3387 9.82812 10.4844L13.4219 14.0625H1.5625C1.1481 14.0625 0.750672 14.2271 0.457646 14.5201C0.16462 14.8132 0 15.2106 0 15.625ZM20.3125 0H4.6875C3.4443 0 2.25201 0.49386 1.37294 1.37294C0.49386 2.25201 0 3.4443 0 4.6875V9.375C0 9.7894 0.16462 10.1868 0.457646 10.4799C0.750672 10.7729 1.1481 10.9375 1.5625 10.9375C1.9769 10.9375 2.37433 10.7729 2.66735 10.4799C2.96038 10.1868 3.125 9.7894 3.125 9.375V4.6875C3.125 4.2731 3.28962 3.87567 3.58265 3.58265C3.87567 3.28962 4.2731 3.125 4.6875 3.125H20.3125C20.7269 3.125 21.1243 3.28962 21.4174 3.58265C21.7104 3.87567 21.875 4.2731 21.875 4.6875V26.5625C21.875 26.9769 21.7104 27.3743 21.4174 27.6674C21.1243 27.9604 20.7269 28.125 20.3125 28.125H4.6875C4.2731 28.125 3.87567 27.9604 3.58265 27.6674C3.28962 27.3743 3.125 26.9769 3.125 26.5625V21.875C3.125 21.4606 2.96038 21.0632 2.66735 20.7701C2.37433 20.4771 1.9769 20.3125 1.5625 20.3125C1.1481 20.3125 0.750672 20.4771 0.457646 20.7701C0.16462 21.0632 0 21.4606 0 21.875V26.5625C0 27.8057 0.49386 28.998 1.37294 29.8771C2.25201 30.7561 3.4443 31.25 4.6875 31.25H20.3125C21.5557 31.25 22.748 30.7561 23.6271 29.8771C24.5061 28.998 25 27.8057 25 26.5625V4.6875C25 3.4443 24.5061 2.25201 23.6271 1.37294C22.748 0.49386 21.5557 0 20.3125 0Z" fill="#ED3C7C"/>
</svg>
