<svg width="24" height="27" viewBox="0 0 24 27" fill="none" xmlns="http://www.w3.org/2000/svg">
<path d="M15.9827 26.9999C15.2152 27.003 14.4642 26.7775 13.8254 26.3522C13.1865 25.9269 12.6887 25.3211 12.3953 24.612C12.102 23.9028 12.0263 23.1224 12.1781 22.37C12.3298 21.6177 12.702 20.9276 13.2473 20.3876L19.0571 14.5665C19.2284 14.4236 19.368 14.2467 19.4671 14.047C19.5661 13.8472 19.6225 13.629 19.6326 13.4062C19.6426 13.1835 19.6062 12.9611 19.5255 12.7532C19.4449 12.5453 19.3218 12.3565 19.1641 12.1988C19.0064 12.0412 18.8176 11.9181 18.6098 11.8374C18.4019 11.7568 18.1795 11.7203 17.9567 11.7304C17.734 11.7404 17.5158 11.7968 17.316 11.8959C17.1162 11.995 16.9393 12.1346 16.7965 12.3058L9.04253 20.0485C8.30566 20.7565 7.32341 21.1519 6.30151 21.1519C5.27962 21.1519 4.29736 20.7565 3.5605 20.0485C2.83713 19.3219 2.43102 18.3384 2.43102 17.3131C2.43102 16.2879 2.83713 15.3043 3.5605 14.5778L13.2586 4.87965C13.4299 4.73684 13.5695 4.55991 13.6685 4.36015C13.7676 4.16039 13.824 3.94218 13.8341 3.71943C13.8441 3.49667 13.8077 3.27427 13.727 3.06638C13.6463 2.8585 13.5233 2.66971 13.3656 2.51204C13.2079 2.35437 13.0191 2.23128 12.8112 2.15062C12.6034 2.06996 12.3809 2.0335 12.1582 2.04357C11.9354 2.05363 11.7172 2.11 11.5175 2.20908C11.3177 2.30815 11.1408 2.44777 10.998 2.61902L1.59375 11.9667L0 10.3843L9.37032 1.00266C10.1084 0.334553 11.0752 -0.0240145 12.0705 0.00124986C13.0657 0.0265142 14.0131 0.433674 14.7164 1.13837C15.4196 1.84307 15.8248 2.7913 15.848 3.7866C15.8712 4.7819 15.5107 5.74798 14.841 6.4847L5.15424 16.1715C4.85606 16.4721 4.68874 16.8784 4.68874 17.3018C4.68874 17.7252 4.85606 18.1315 5.15424 18.4321C5.45899 18.7224 5.86371 18.8843 6.28456 18.8843C6.7054 18.8843 7.11012 18.7224 7.41487 18.4321L15.1688 10.6782C15.5212 10.2889 15.9489 9.9753 16.4261 9.75632C16.9032 9.53733 17.4199 9.41754 17.9448 9.40422C18.4696 9.3909 18.9917 9.48431 19.4794 9.67881C19.9671 9.8733 20.4101 10.1648 20.7818 10.5357C21.1534 10.9065 21.4458 11.349 21.6413 11.8363C21.8368 12.3236 21.9313 12.8455 21.9191 13.3703C21.9069 13.8952 21.7881 14.4121 21.5701 14.8898C21.3521 15.3674 21.0394 15.7958 20.6509 16.1489L14.8297 21.97C14.5732 22.2777 14.4409 22.6702 14.459 23.0704C14.4771 23.4707 14.6442 23.8496 14.9275 24.1329C15.2108 24.4162 15.5897 24.5833 15.99 24.6014C16.3902 24.6195 16.7827 24.4872 17.0904 24.2307L22.109 19.2234L23.7366 20.851L18.718 25.8696C18.3602 26.2305 17.9339 26.5163 17.4643 26.7104C16.9946 26.9045 16.4909 27.0029 15.9827 26.9999Z" fill="#ED3C7C"/>
</svg>
