<svg width="28" height="25" viewBox="0 0 28 25" fill="none" xmlns="http://www.w3.org/2000/svg">
<path d="M17.8928 0.0100567L18.0248 0.000334699L18.1803 0.00589011L18.3373 0.0295009L18.4942 0.0711672L26.8274 2.84891C27.0779 2.93242 27.2994 3.08561 27.4659 3.29052C27.6325 3.49543 27.7371 3.74356 27.7677 4.00584L27.7774 4.16695V11.1113C27.7774 11.4515 27.6525 11.7798 27.4264 12.034C27.2004 12.2882 26.8889 12.4506 26.551 12.4904L26.3885 12.5002H23.6108V22.2223C23.611 22.9231 23.3463 23.598 22.8698 24.1119C22.3933 24.6257 21.7402 24.9405 21.0414 24.9931L20.8331 25H6.94435C6.24356 25.0002 5.56858 24.7356 5.05473 24.259C4.54087 23.7825 4.22611 23.1294 4.17356 22.4306L4.16661 22.2223V12.5002H1.38887C1.04869 12.5001 0.720356 12.3752 0.466144 12.1492C0.211932 11.9231 0.0495233 11.6116 0.00972213 11.2738L7.92654e-08 11.1113V4.16695C-8.9129e-05 3.90285 0.0751221 3.6442 0.216814 3.42133C0.358507 3.19846 0.560806 3.02061 0.799989 2.90863L0.949987 2.84891L9.28321 0.0711672C9.492 0.00162536 9.71433 -0.0173056 9.93187 0.015935C10.1494 0.0491756 10.356 0.133636 10.5344 0.262356C10.7129 0.391075 10.8583 0.560369 10.9585 0.756287C11.0588 0.952204 11.111 1.16914 11.111 1.38921C11.1077 2.11001 11.3848 2.80383 11.8837 3.32411C12.3826 3.84439 13.0642 4.15038 13.7845 4.17742C14.5048 4.20447 15.2074 3.95045 15.7438 3.46905C16.2803 2.98764 16.6087 2.31655 16.6595 1.59754L16.672 1.26421L16.6956 1.10726L16.747 0.921156L16.8081 0.778102L16.8776 0.650326L16.972 0.521161L17.0678 0.410052C17.1447 0.335978 17.2257 0.271164 17.3109 0.21561L17.4442 0.141999L17.5873 0.0808893L17.7373 0.0364454L17.8928 0.0100567Z" fill="#ED3C7C"/>
</svg>
