<svg width="25" height="25" viewBox="0 0 25 25" fill="none" xmlns="http://www.w3.org/2000/svg">
<path d="M24.8718 23.5623C24.7874 23.7085 24.6659 23.8299 24.5197 23.9143C24.3735 23.9987 24.2076 24.0431 24.0388 24.043H0.960605C0.791895 24.0429 0.626198 23.9983 0.480155 23.9138C0.334112 23.8294 0.212863 23.708 0.128582 23.5618C0.0443018 23.4157 -4.32815e-05 23.2499 3.16986e-08 23.0812C4.33449e-05 22.9125 0.0444734 22.7468 0.128829 22.6007C1.95946 19.4358 4.78053 17.1665 8.07277 16.0907C6.44428 15.1212 5.17904 13.644 4.47136 11.8859C3.76368 10.1278 3.65268 8.18593 4.15542 6.35861C4.65816 4.5313 5.74683 2.91953 7.25425 1.77082C8.76167 0.622121 10.6045 0 12.4997 0C14.3949 0 16.2377 0.622121 17.7452 1.77082C19.2526 2.91953 20.3412 4.5313 20.844 6.35861C21.3467 8.18593 21.2357 10.1278 20.528 11.8859C19.8204 13.644 18.5551 15.1212 16.9266 16.0907C20.2189 17.1665 23.0399 19.4358 24.8706 22.6007C24.9552 22.7467 24.9998 22.9125 25 23.0813C25.0002 23.2501 24.956 23.416 24.8718 23.5623Z" fill="#ED3C7C"/>
</svg>
