<svg width="25" height="21" viewBox="0 0 25 21" fill="none" xmlns="http://www.w3.org/2000/svg">
<path d="M25 7.37318C25 8.68 24.7682 9.92545 24.3045 11.1095C23.8409 12.2936 23.211 13.3683 22.4148 14.3334C22.1875 14.5986 21.9034 14.7406 21.5625 14.7595C21.2216 14.7785 20.9186 14.6554 20.6534 14.3902C20.4072 14.144 20.2936 13.8504 20.3125 13.5095C20.3314 13.1686 20.4451 12.8561 20.6534 12.572C21.2216 11.8523 21.6621 11.0474 21.975 10.1573C22.2879 9.26712 22.4439 8.33909 22.4432 7.37318C22.4424 6.40727 22.2864 5.48871 21.975 4.6175C21.6636 3.74628 21.2231 2.95083 20.6534 2.23113C20.4261 1.94704 20.308 1.63454 20.2989 1.29363C20.2898 0.952725 20.408 0.649694 20.6534 0.384543C20.8989 0.119391 21.1973 -0.00863887 21.5489 0.000452035C21.9004 0.00954294 22.189 0.147043 22.4148 0.412952C23.2102 1.37886 23.8401 2.45386 24.3045 3.63795C24.7689 4.82204 25.0008 6.06712 25 7.37318ZM19.8295 7.37318C19.8295 7.97924 19.7348 8.56181 19.5455 9.12091C19.3561 9.68 19.0909 10.1959 18.75 10.6686C18.5417 10.9527 18.2625 11.0997 17.9125 11.1095C17.5625 11.1194 17.2545 10.9914 16.9886 10.7255C16.7424 10.4792 16.6148 10.1811 16.6057 9.83113C16.5966 9.48113 16.6769 9.14477 16.8466 8.82204C16.9602 8.61371 17.0504 8.38644 17.117 8.14022C17.1837 7.89401 17.2167 7.63833 17.2159 7.37318C17.2151 7.10803 17.1818 6.85234 17.1159 6.60613C17.05 6.35992 16.9602 6.12318 16.8466 5.89591C16.6761 5.57394 16.5955 5.2425 16.6045 4.90159C16.6136 4.56068 16.7417 4.26712 16.9886 4.02091C17.2538 3.75575 17.5617 3.62772 17.9125 3.63681C18.2633 3.64591 18.5424 3.79288 18.75 4.07772C19.0909 4.55121 19.3561 5.0675 19.5455 5.62659C19.7348 6.18568 19.8295 6.76788 19.8295 7.37318ZM9.09091 11.9186C7.84091 11.9186 6.77083 11.4736 5.88068 10.5834C4.99053 9.69325 4.54545 8.62318 4.54545 7.37318C4.54545 6.12318 4.99053 5.0531 5.88068 4.16295C6.77083 3.2728 7.84091 2.82772 9.09091 2.82772C10.3409 2.82772 11.411 3.2728 12.3011 4.16295C13.1913 5.0531 13.6364 6.12318 13.6364 7.37318C13.6364 8.62318 13.1913 9.69325 12.3011 10.5834C11.411 11.4736 10.3409 11.9186 9.09091 11.9186ZM0 18.7368V17.8277C0 17.2027 0.160985 16.6156 0.482954 16.0664C0.804924 15.5171 1.25 15.1005 1.81818 14.8164C2.78409 14.3239 3.87311 13.9073 5.08523 13.5664C6.29735 13.2255 7.63257 13.055 9.09091 13.055C10.5492 13.055 11.8845 13.2255 13.0966 13.5664C14.3087 13.9073 15.3977 14.3239 16.3636 14.8164C16.9318 15.1005 17.3769 15.5171 17.6989 16.0664C18.0208 16.6156 18.1818 17.2027 18.1818 17.8277V18.7368C18.1818 19.3618 17.9595 19.897 17.5148 20.3425C17.0701 20.7879 16.5348 21.0103 15.9091 21.0095H2.27273C1.64773 21.0095 1.11288 20.7872 0.668182 20.3425C0.223485 19.8978 0.000757576 19.3626 0 18.7368Z" fill="#ED3C7C"/>
</svg>
