<?xml version="1.0" encoding="UTF-8"?>
<svg id="Layer_2" data-name="Layer 2" xmlns="http://www.w3.org/2000/svg" viewBox="0 0 653.35 620.09">
  <defs>
    <style>
      .cls-1 {
        fill: #ed3c7c;
        stroke: #ed3c7c;
        stroke-miterlimit: 10;
      }
    </style>
  </defs>
  <g id="Icon">
    <g>
      <path class="cls-1" d="m300.43,9.54c.85.85,2.12,1.11,3.26.7,16.42-5.91,34.46-5.91,50.88,0,1.14.41,2.4.15,3.26-.7l2.24-2.24c1.86-1.86.7-5.03-1.92-5.29-10.35-1-20.85-1.52-31.46-1.52-9.07,0-18.06.37-26.94,1.1-2.64.22-3.83,3.42-1.95,5.29l2.65,2.65Z"/>
      <path class="cls-1" d="m494.74,47.1c-2.13-1.28-4.86-.93-6.62.83l-39.05,39.05c-2.12,2.12-2.12,5.55,0,7.67l13.71,13.71c8.31,8.31,8.31,21.78,0,30.09l-83.87,83.87c-27.5,27.5-72.07,27.5-99.57,0l-83.87-83.87c-8.31-8.31-8.31-21.78,0-30.09l13.71-13.71c2.12-2.12,2.12-5.55,0-7.67l-40.88-40.88c-1.74-1.74-4.45-2.11-6.57-.86C65.27,101.89.5,206.72.5,326.68c0,128.11,73.86,238.95,181.31,292.3,5.48,2.72,10.55-4.38,6.22-8.71l-64.27-64.27c-23.29-23.29-23.29-61.05,0-84.34h0c23.29-23.29,61.05-23.29,84.34,0l91.29,91.29c1.43,1.43,3.56,1.98,5.48,1.33,15.7-5.35,32.8-5.35,48.5,0,1.92.65,4.05.11,5.48-1.33l91.3-91.3c23.29-23.29,61.05-23.29,84.34,0h0c23.29,23.29,23.29,61.05,0,84.34l-58.99,58.98c-4.43,4.43.93,11.59,6.43,8.6,101.79-55.2,170.9-162.98,170.9-286.91s-63.37-222.5-158.11-279.58Zm39.76,229.13l-85.43,85.43c-2.12,2.12-2.12,5.55,0,7.67l11.51,11.51c9.52,9.52,9.52,24.95,0,34.47l-81.68,81.67c-27.5,27.5-72.07,27.5-99.57,0l-18.88-18.88,54.61-54.61c3.96-3.96,3.96-10.37,0-14.32-3.96-3.96-10.37-3.96-14.32,0l-54.61,54.61-24.68-24.68,54.61-54.61c3.96-3.96,3.96-10.37,0-14.32-3.96-3.96-10.37-3.96-14.32,0l-54.61,54.61-9.47-9.47c-9.52-9.52-9.52-24.95,0-34.47l11.51-11.51c2.12-2.12,2.12-5.55,0-7.67l-85.43-85.43c-23.29-23.29-23.29-61.05,0-84.34h0c23.29-23.29,61.05-23.29,84.34,0l91.29,91.29c1.43,1.43,3.56,1.98,5.48,1.33,15.7-5.35,32.8-5.35,48.5,0,1.92.65,4.05.11,5.48-1.33l91.3-91.3c23.29-23.29,61.05-23.29,84.34,0h0c23.29,23.29,23.29,61.05,0,84.34Z"/>
    </g>
  </g>
</svg>