<?xml version="1.0" encoding="UTF-8"?>
<svg id="Layer_2" data-name="Layer 2" xmlns="http://www.w3.org/2000/svg" viewBox="0 0 656 873.62">
  <defs>
    <style>
      .cls-1 {
        stroke-width: 0px;
      }

      .cls-1, .cls-2 {
        fill: #ed3c7c;
      }

      .cls-2 {
        stroke: #ed3c7c;
        stroke-miterlimit: 10;
      }
    </style>
  </defs>
  <g id="Icon">
    <path class="cls-2" d="m328,.5C147.13.5.5,147.13.5,328s146.63,327.5,327.5,327.5,327.5-146.63,327.5-327.5S508.87.5,328,.5Zm207.97,276.73l-85.43,85.43c-2.12,2.12-2.12,5.55,0,7.67l11.51,11.51c9.52,9.52,9.52,24.95,0,34.47l-81.68,81.67c-27.5,27.5-72.07,27.5-99.57,0l-18.88-18.88,54.61-54.61c3.96-3.96,3.96-10.37,0-14.32-3.96-3.96-10.37-3.96-14.32,0l-54.61,54.61-24.68-24.68,54.61-54.61c3.96-3.96,3.96-10.37,0-14.32-3.96-3.96-10.37-3.96-14.32,0l-54.61,54.61-9.47-9.47c-9.52-9.52-9.52-24.95,0-34.47l11.51-11.51c2.12-2.12,2.12-5.55,0-7.67l-85.43-85.43c-23.29-23.29-23.29-61.05,0-84.34h0c23.29-23.29,61.05-23.29,84.34,0l91.29,91.29c1.43,1.43,3.56,1.98,5.48,1.33,15.7-5.35,32.8-5.35,48.5,0,1.92.65,4.05.11,5.48-1.33l91.3-91.3c23.29-23.29,61.05-23.29,84.34,0h0c23.29,23.29,23.29,61.05,0,84.34Z"/>
  </g>
  <g id="Wordmark">
    <g>
      <path class="cls-1" d="m142.19,873.62c-15.28,0-27.79-3.73-37.55-11.18-9.76-7.46-16.34-17.48-19.74-30.07-3.4-12.59-3.22-26.57.56-41.94l27.37-111.29h37.64l-27.37,111.29c-2.04,8.28-2.36,15.87-.97,22.78,1.39,6.91,4.53,12.43,9.43,16.57,4.89,4.14,11.52,6.21,19.89,6.21s16.12-2.05,22.99-6.14c6.87-4.09,12.66-9.59,17.36-16.5,4.7-6.91,8.08-14.55,10.14-22.91l27.37-111.29h37.64l-27.37,111.29c-2.84,11.55-7.34,22.35-13.49,32.39-6.15,10.05-13.58,18.89-22.28,26.53-8.7,7.64-18.28,13.59-28.74,17.87-10.46,4.27-21.42,6.41-32.88,6.41Z"/>
      <path class="cls-1" d="m232.26,870.07l46.96-190.94h40.64l44.25,122.89,30.22-122.89h37.64l-46.96,190.94h-40.64l-44.25-122.89-30.22,122.89h-37.64Z"/>
      <path class="cls-1" d="m508.08,679.12h42.83l22.33,190.94h-39.96l-3.67-31.64h-78.56l-19.24,31.64h-39.96l116.24-190.94Zm-34.01,121.66h51.01l-8.43-69.97-42.57,69.97Z"/>
    </g>
  </g>
</svg>