<?xml version="1.0" encoding="UTF-8"?>
<svg id="Layer_2" data-name="Layer 2" xmlns="http://www.w3.org/2000/svg" viewBox="0 0 903.44 359.47">
  <defs>
    <style>
      .cls-1, .cls-2, .cls-3, .cls-4, .cls-5, .cls-6 {
        stroke: #000;
      }

      .cls-1, .cls-3, .cls-7 {
        fill: #fff;
      }

      .cls-1, .cls-3, .cls-4, .cls-5, .cls-6 {
        stroke-miterlimit: 10;
      }

      .cls-1, .cls-6 {
        stroke-width: 2.86px;
      }

      .cls-2 {
        stroke-linecap: round;
        stroke-linejoin: round;
      }

      .cls-2, .cls-3, .cls-4, .cls-5 {
        stroke-width: 4.29px;
      }

      .cls-2, .cls-4 {
        fill: #ffe9ea;
      }

      .cls-8, .cls-7, .cls-9 {
        stroke-width: 0px;
      }

      .cls-9, .cls-5 {
        fill: #e7d6c9;
      }

      .cls-6 {
        fill: #ecb7ba;
      }
    </style>
  </defs>
  <g id="Layer_1-2" data-name="Layer 1">
    <g>
      <rect class="cls-9" x="48.64" y="198.86" width="70.1" height="38.63"/>
      <path class="cls-4" d="m42.2,226.04s-19.5,39.71-7.15,114.45c2.45,14.86,35.77,15.74,40.06,4.29,5.02-13.4,0-33.59,0-33.59l15.74-.74s0,27.18,2.86,34.34,22.89,12.88,34.34,1.43c11.45-11.45,10.01-92.99-4.29-121.6"/>
      <path class="cls-2" d="m46.29,99.5c-1.43,1.65-4.15.73-4.26-1.44-.07-1.45-.42-2.77-1.26-3.61-2.86-2.89-18.6,1.41-22.89-14.33C14.4,67.34,7.15,23.47,4.54,7.39c-.36-2.19,2.17-3.67,3.91-2.3,13.69,10.74,51.44,43.54,50.94,78.41,0,.58-.23,1.14-.61,1.57l-12.49,14.41Z"/>
      <path class="cls-6" d="m27.72,41.49c-2.99-2.09-7.09.11-7.02,3.75.22,10.81,1.65,29.03,8.62,32.01,4.81,2.06,8.63,3.79,11.31,5.04s5.51-.24,6.21-2.96c1.36-5.31,2.2-13.99-3.21-22.11-4.68-7.03-11.07-12.35-15.91-15.73Z"/>
      <path class="cls-2" d="m117.75,99.5c1.43,1.65,4.15.73,4.26-1.44.07-1.45.42-2.77,1.26-3.61,2.86-2.89,18.6,1.41,22.89-14.33,3.48-12.77,10.74-56.65,13.35-72.72.36-2.19-2.17-3.67-3.91-2.3-13.69,10.74-51.44,43.54-50.94,78.41,0,.58.23,1.14.61,1.57l12.49,14.41Z"/>
      <path class="cls-6" d="m136.32,41.49c2.99-2.09,7.09.11,7.02,3.75-.22,10.81-1.65,29.03-8.62,32.01-4.81,2.06-8.63,3.79-11.31,5.04s-5.51-.24-6.21-2.96c-1.36-5.31-2.2-13.99,3.21-22.11,4.68-7.03,11.07-12.35,15.91-15.73Z"/>
      <path class="cls-4" d="m116.6,200.29s52.93,54.36,45.78,81.55c-4.25,16.13-15.74,14.31-23.87,12.88-19.16-3.37-21.46-54.36-21.46-54.36"/>
      <path class="cls-4" d="m48.59,200.29S-4.34,254.65,2.81,281.83c4.25,16.13,15.74,14.31,23.87,12.88,19.16-3.37,21.46-54.36,21.46-54.36"/>
      <path class="cls-8" d="m32.9,286.84s58.84,9.43,101.6-.1c0,0,7.15,25.75,2.94,35.67-4.21,9.92-45.71,7.14-47.4,2.58-1.69-4.56.21-9.92.21-9.92l-13.06.79s2.92,6.74-1.37,9.6c-5.01,3.34-43.07,3.1-45.18-3.25s2.26-35.38,2.26-35.38Z"/>
      <g>
        <path class="cls-3" d="m145.92,231.72l-18-23.18c-11.45-11.45-28.63-8.18-28.63-8.18,0,10.91-17.45,16.91-17.45,16.91,0,0-17.45-6-17.45-16.91,0,0-17.18-3.27-28.63,8.18l-18,23.18,17.45,16.36s-6.54,30-4.09,36.81c0,0,24.81,14.18,50.72,12,25.91,2.18,50.72-12,50.72-12,2.45-6.82-4.09-36.81-4.09-36.81l17.45-16.36Z"/>
        <line class="cls-1" x1="35.58" y1="249.95" x2="38.63" y2="233.91"/>
        <line class="cls-1" x1="127.86" y1="248.09" x2="123.75" y2="232.6"/>
      </g>
      <path class="cls-4" d="m141.7,155.21c-.69-104.94-112.92-110-114.53.18-.05,3.19-.51,6.38-1.35,9.46-7.11,26.27,31.36,39.1,49.51,43.63,5.96,1.49,12.18,1.49,18.14,0,18.1-4.52,56.39-17.29,49.57-43.4-.84-3.22-1.33-6.54-1.35-9.87Z"/>
      <ellipse class="cls-8" cx="63.66" cy="150.22" rx="5.01" ry="12.16"/>
      <ellipse class="cls-8" cx="106.58" cy="150.22" rx="5.01" ry="12.16"/>
      <path class="cls-8" d="m74.51,161.63l10.58,4.7c.47.21,1.01.2,1.48-.02l10.06-4.75c.76-.36,1.68-.13,2.18.55l.29.39c.55.74.44,1.77-.24,2.38l-10.53,9.41c-.62.56-1.55.6-2.23.11l-13.36-9.72c-.7-.51-.93-1.45-.54-2.23h0c.42-.85,1.44-1.21,2.31-.83Z"/>
      <ellipse class="cls-7" cx="66.52" cy="144.49" rx="2.15" ry="3.58"/>
      <ellipse class="cls-7" cx="109.44" cy="144.49" rx="2.15" ry="3.58"/>
    </g>
    <g>
      <path class="cls-4" d="m691.2,143.97c9.13-30.22-8.68-65.01-40.11-67.98-27.47-2.6-69.78,7.32-71.88,62.08-3.52,91.61,100.27,72.7,114.63,56.91,21.69-23.85-3.81-47.65-3.81-47.65,0,0,.52-1.21,1.17-3.36Z"/>
      <path class="cls-4" d="m581.92,245.68c-6.12-.91-11.98-3.05-17.15-6.45-2.84-1.87-4.84-3.03-6.9-1.76-2.63,1.61,1.01,31.62,14.71,46.83,14.57,16.18,41.6,3.25,37.42-18.13-.84-4.27-2.7-7.14-4.11-8.53-.96-.95-9.05-9.74-23.96-11.96Z"/>
      <path class="cls-4" d="m615.6,87.58c3.76,14.55,23.12,18.02,31.25,5.39,8.36-12.99,14.32-38.59,7.13-88.95-3.61-12.55-49.53,40.38-38.38,83.56Z"/>
      <path class="cls-8" d="m700.22,162.57l-7.46-1.79c-1.03-.25-1.68,1.07-.86,1.73l9.72,7.92c.44.36,1.1.28,1.43-.19,1.33-1.88,3.72-6.4-2.83-7.67Z"/>
      <ellipse class="cls-8" cx="677.58" cy="134.36" rx="4.64" ry="12.98"/>
      <path class="cls-4" d="m659.85,207.27s23.43,37.31,20.01,68.56c-3.42,31.25-9.84,32.69-9.84,32.69,0,0-3.59,40.3-8.96,42.74s-27.1,4.39-29.05,0c-1.95-4.39-5.13-49.56-5.13-49.56,0,0-26.61-8.54-24.66-30.52,1.95-21.97,18.55-68.11,18.55-68.11l39.07,4.19Z"/>
      <path class="cls-8" d="m603.17,264.25h76.04s5.53,30.77-9.18,44.28l-42.81-2.27-.33-4.55s-31.21-7.32-23.72-37.46Z"/>
      <ellipse class="cls-7" cx="677.6" cy="129.13" rx="2.69" ry="4.66"/>
      <path class="cls-3" d="m620.78,203.08l-17.61,61.17h81.41s-5.81-47.85-24.74-56.98c-18.93-9.13-39.07-4.19-39.07-4.19"/>
      <path class="cls-4" d="m627.23,213.05s14.16-17.09,20.75,0c6.59,17.09,26.37,80.81-3.91,88.86-30.27,8.06-48.58-54.2-16.85-88.86Z"/>
      <path class="cls-3" d="m636.56,205.21c-6.64,3.45-22.41,14.11-24.48,38.17h44.88s-1.45-29.9-13.37-37.81c-2.1-1.39-4.79-1.52-7.03-.36Z"/>
    </g>
    <path class="cls-8" d="m761.2,162.57l7.46-1.79c1.03-.25,1.68,1.07.86,1.73l-9.72,7.92c-.44.36-1.1.28-1.43-.19-1.33-1.88-3.72-6.4,2.83-7.67Z"/>
  </g>
  <g id="Layer_4" data-name="Layer 4">
    <g>
      <path class="cls-4" d="m767.17,147.41c-9.13-30.22,8.68-65.01,40.11-67.98,27.47-2.6,69.78,7.32,71.88,62.08,3.52,91.61-100.27,72.7-114.63,56.91-21.69-23.85,3.81-47.65,3.81-47.65,0,0-.52-1.21-1.17-3.36Z"/>
      <path class="cls-4" d="m876.45,249.12c6.12-.91,11.98-3.05,17.15-6.45,2.84-1.87,4.84-3.03,6.9-1.76,2.63,1.61-1.01,31.62-14.71,46.83-14.57,16.18-41.6,3.25-37.42-18.13.84-4.27,2.7-7.14,4.11-8.53.96-.95,9.05-9.74,23.96-11.96Z"/>
      <path class="cls-4" d="m841.05,96.42c-4.04,10.57-17.81,13.37-25.56,5.12-10.19-10.85-19.4-35.99-11.11-94.08,3.76-13.08,53.47,44.95,36.66,88.96Z"/>
      <ellipse class="cls-8" cx="780.79" cy="137.8" rx="4.64" ry="12.98"/>
      <path class="cls-4" d="m798.52,210.71s-23.43,37.31-20.01,68.56,9.84,32.69,9.84,32.69c0,0,3.59,40.3,8.96,42.74,5.37,2.44,27.1,4.39,29.05,0,1.95-4.39,5.13-49.56,5.13-49.56,0,0,26.61-8.54,24.66-30.52-1.95-21.97-18.55-68.11-18.55-68.11l-39.07,4.19Z"/>
      <path class="cls-8" d="m855.2,267.69h-76.04s-5.53,30.77,9.18,44.28l42.81-2.27.33-4.55s31.21-7.32,23.72-37.46Z"/>
      <path class="cls-7" d="m783.46,131.96c0,2.58-1.2,4.66-2.69,4.66-1.49,0-2.69-2.09-2.69-4.66s1.2-4.66,2.69-4.66,2.69,2.09,2.69,4.66Z"/>
      <path class="cls-3" d="m840.08,207.37l17.61,61.17h-81.41s5.81-47.85,24.74-56.98c18.93-9.13,39.07-4.19,39.07-4.19"/>
      <path class="cls-4" d="m831.14,216.49s-14.16-17.09-20.75,0-26.37,80.81,3.91,88.86c30.27,8.06,48.58-54.2,16.85-88.86Z"/>
      <path class="cls-3" d="m821.44,209.5c6.64,3.45,22.41,14.11,24.48,38.17h-44.88s1.45-29.9,13.37-37.81c2.1-1.39,4.79-1.52,7.03-.36Z"/>
    </g>
  </g>
  <g id="Layer_2-2" data-name="Layer 2">
    <g>
      <path class="cls-4" d="m248.21,226.04s-19.5,39.71-7.15,114.45c2.45,14.86,35.77,15.74,40.06,4.29,5.02-13.4,0-33.59,0-33.59l15.74-.74s0,27.18,2.86,34.34,22.89,12.88,34.34,1.43,10.01-92.99-4.29-121.6"/>
      <path class="cls-4" d="m248.87,98.51c-1.68,1.94-4.81,1-5.23-1.53-.17-1.01-.52-1.9-1.14-2.53-2.86-2.89-18.6,1.41-22.89-14.33-3.38-12.41-10.33-54.17-13.11-71.28-.44-2.71,2.68-4.54,4.83-2.83,14.5,11.56,50.14,43.44,49.79,77.3,0,.71-.28,1.4-.75,1.94l-11.5,13.27Z"/>
      <path class="cls-4" d="m327.7,98.51c1.68,1.94,4.81,1,5.23-1.53.17-1.01.52-1.9,1.14-2.53,2.86-2.89,18.6,1.41,22.89-14.33,3.38-12.41,10.33-54.17,13.11-71.28.44-2.71-2.68-4.54-4.83-2.83-14.5,11.56-50.14,43.44-49.79,77.3,0,.71.28,1.4.75,1.94l11.5,13.27Z"/>
      <path class="cls-5" d="m324.04,200.29s52.93,54.36,45.78,81.55c-4.25,16.13-15.74,14.31-23.87,12.88-19.16-3.37-21.46-54.36-21.46-54.36"/>
      <path class="cls-4" d="m256.03,200.29s-52.93,54.36-45.78,81.55c4.25,16.13,15.74,14.31,23.87,12.88,19.16-3.37,21.46-54.36,21.46-54.36"/>
      <rect class="cls-9" x="256.08" y="198.86" width="70.1" height="38.63"/>
      <path class="cls-8" d="m238.65,286.74s59.1,9.52,101.86,0c0,0,7.15,25.75,2.94,35.67-4.21,9.92-45.71,7.14-47.4,2.58-1.69-4.56.21-9.92.21-9.92l-13.06.79s2.11,8.33-3.79,9.52-40.65,3.17-42.76-3.17,2-35.47,2-35.47Z"/>
      <g>
        <path class="cls-3" d="m353.36,233.15l-18-23.18c-11.45-11.45-28.63-8.18-28.63-8.18-7.02,7.08-31.34,5.65-34.9,0,0,0-17.18-3.27-28.63,8.18l-18,23.18,17.45,16.36s-6.54,30-4.09,36.81c0,0,24.81,14.18,50.72,12,25.91,2.18,50.72-12,50.72-12,2.45-6.82-4.09-36.81-4.09-36.81l17.45-16.36Z"/>
        <line class="cls-1" x1="243.02" y1="251.38" x2="246.07" y2="235.34"/>
        <line class="cls-1" x1="335.3" y1="249.52" x2="331.19" y2="234.03"/>
      </g>
      <path class="cls-4" d="m346.28,155.21c-.69-104.94-112.92-110-114.53.18-.05,3.19-.97,6.29-1.35,9.46-7.13,59.56,124.02,56.03,117.23.23-.4-3.31-1.33-6.54-1.35-9.87Z"/>
      <path class="cls-4" d="m293.84,273.98c-2.39-1.69-5.61-1.56-7.84.34-6.25,5.31-18.04,17.21-15.83,29.92,2.98,17.16,34.57,24.25,40.04-.87,0-15.56-10.37-25.15-16.36-29.39Z"/>
    </g>
  </g>
</svg>