<svg width="23" height="40" viewBox="0 0 23 40" fill="none" xmlns="http://www.w3.org/2000/svg">
<path fill-rule="evenodd" clip-rule="evenodd" d="M21.9266 1.43195C20.4953 0.00070853 18.1748 0.000709886 16.7436 1.43196L1.12051 17.055C1.10471 17.0703 1.08902 17.0857 1.07343 17.1013C0.329492 17.8452 -0.0277587 18.8294 0.00168098 19.8041C0.0286926 20.7049 0.385952 21.5976 1.07346 22.2851C1.08855 22.3002 1.10374 22.3151 1.11902 22.3299L16.7435 37.9544C18.1748 39.3856 20.4953 39.3856 21.9265 37.9544C23.3578 36.5231 23.3578 34.2026 21.9265 32.7714L8.84834 19.6932L21.9266 6.61495C23.3578 5.18371 23.3578 2.8632 21.9266 1.43195Z" fill="#ED3C7C"/>
</svg>
