<?xml version="1.0" encoding="UTF-8"?>
<svg id="Layer_2" data-name="Layer 2" xmlns="http://www.w3.org/2000/svg" viewBox="0 0 490.76 194.49">
  <defs>
    <style>
      .cls-1 {
        stroke-width: 0px;
      }
    </style>
  </defs>
  <g id="Wordmark">
    <g>
      <path class="cls-1" d="m59.72,194.49c-15.28,0-27.79-3.73-37.55-11.18-9.76-7.46-16.34-17.48-19.74-30.07-3.4-12.59-3.22-26.57.56-41.94L30.35,0h37.64l-27.37,111.29c-2.04,8.28-2.36,15.87-.97,22.78,1.39,6.91,4.53,12.43,9.43,16.57,4.89,4.14,11.52,6.21,19.89,6.21s16.12-2.05,22.99-6.14c6.87-4.09,12.66-9.59,17.36-16.5,4.7-6.91,8.08-14.55,10.14-22.91L146.83,0h37.64l-27.37,111.29c-2.84,11.55-7.34,22.35-13.49,32.39-6.15,10.05-13.58,18.89-22.28,26.53-8.7,7.64-18.28,13.59-28.74,17.87-10.46,4.27-21.42,6.41-32.88,6.41Z"/>
      <path class="cls-1" d="m149.79,190.94L196.75,0h40.64l44.25,122.89L311.86,0h37.64l-46.96,190.94h-40.64l-44.25-122.89-30.22,122.89h-37.64Z"/>
      <path class="cls-1" d="m425.6,0h42.83l22.33,190.94h-39.96l-3.67-31.64h-78.56l-19.24,31.64h-39.96L425.6,0Zm-34.01,121.66h51.01l-8.43-69.97-42.57,69.97Z"/>
    </g>
  </g>
</svg>