<?xml version="1.0" encoding="UTF-8"?>
<svg id="Layer_2" data-name="Layer 2" xmlns="http://www.w3.org/2000/svg" viewBox="0 0 656 656">
  <defs>
    <style>
      .cls-1 {
        stroke: #ed3c7c;
        stroke-miterlimit: 10;
      }
    </style>
  </defs>
  <g id="Icon">
    <path class="cls-1" d="m328,.5C147.13.5.5,147.13.5,328s146.63,327.5,327.5,327.5,327.5-146.63,327.5-327.5S508.87.5,328,.5Zm207.97,276.73l-85.43,85.43c-2.12,2.12-2.12,5.55,0,7.67l11.51,11.51c9.52,9.52,9.52,24.95,0,34.47l-81.68,81.67c-27.5,27.5-72.07,27.5-99.57,0l-18.88-18.88,54.61-54.61c3.96-3.96,3.96-10.37,0-14.32-3.96-3.96-10.37-3.96-14.32,0l-54.61,54.61-24.68-24.68,54.61-54.61c3.96-3.96,3.96-10.37,0-14.32-3.96-3.96-10.37-3.96-14.32,0l-54.61,54.61-9.47-9.47c-9.52-9.52-9.52-24.95,0-34.47l11.51-11.51c2.12-2.12,2.12-5.55,0-7.67l-85.43-85.43c-23.29-23.29-23.29-61.05,0-84.34h0c23.29-23.29,61.05-23.29,84.34,0l91.29,91.29c1.43,1.43,3.56,1.98,5.48,1.33,15.7-5.35,32.8-5.35,48.5,0,1.92.65,4.05.11,5.48-1.33l91.3-91.3c23.29-23.29,61.05-23.29,84.34,0h0c23.29,23.29,23.29,61.05,0,84.34Z"/>
  </g>
</svg>