<svg width="46" height="34" viewBox="0 0 46 34" fill="none" xmlns="http://www.w3.org/2000/svg">
<path fill-rule="evenodd" clip-rule="evenodd" d="M0 4.63636C0 2.07577 2.07577 0 4.63636 0H41.3636C43.9242 0 46 2.07577 46 4.63636C46 7.19696 43.9242 9.27273 41.3636 9.27273H4.63636C2.07577 9.27273 0 7.19696 0 4.63636ZM0 17C0 14.4394 2.07577 12.3636 4.63636 12.3636H41.3636C43.9242 12.3636 46 14.4394 46 17C46 19.5606 43.9242 21.6364 41.3636 21.6364H4.63636C2.07577 21.6364 0 19.5606 0 17ZM4.63636 24.7273C2.07577 24.7273 0 26.8031 0 29.3637C0 31.9243 2.07577 34 4.63636 34H41.3636C43.9242 34 46 31.9243 46 29.3637C46 26.8031 43.9242 24.7273 41.3636 24.7273H4.63636Z" fill="#ED3C7C"/>
</svg>
