<svg width="34" height="31" viewBox="0 0 34 31" fill="none" xmlns="http://www.w3.org/2000/svg">
<path fill-rule="evenodd" clip-rule="evenodd" d="M11.7057 10.6566C13.5532 9.73527 14.8222 7.82695 14.8222 5.62222C14.8222 2.51715 12.3051 0 9.2 0C6.09493 0 3.57778 2.51715 3.57778 5.62222C3.57778 7.75145 4.7614 9.60423 6.50656 10.5585C2.75155 11.6198 0 15.0719 0 19.1667V23H17.8889V19.1667C17.8889 15.1904 15.2943 11.8201 11.7057 10.6566Z" fill="#ED3C7C"/>
<path fill-rule="evenodd" clip-rule="evenodd" d="M27.1502 10.6566C28.9976 9.73527 30.2667 7.82695 30.2667 5.62222C30.2667 2.51715 27.7495 0 24.6445 0C21.5394 0 19.0222 2.51715 19.0222 5.62222C19.0222 7.75145 20.2059 9.60423 21.951 10.5585C18.196 11.6198 15.4445 15.0719 15.4445 19.1667V23H33.3333V19.1667C33.3333 15.1904 30.7387 11.8201 27.1502 10.6566Z" fill="#ED3C7C"/>
<path fill-rule="evenodd" clip-rule="evenodd" d="M19.1502 18.6566C20.9976 17.7353 22.2667 15.8269 22.2667 13.6222C22.2667 10.5172 19.7495 8 16.6445 8C13.5394 8 11.0222 10.5172 11.0222 13.6222C11.0222 15.7514 12.2059 17.6042 13.951 18.5585C10.196 19.6198 7.44446 23.0719 7.44446 27.1667V31H25.3333V27.1667C25.3333 23.1904 22.7387 19.8201 19.1502 18.6566Z" fill="#FFD5EB"/>
</svg>
