<svg width="29" height="29" viewBox="0 0 29 29" fill="none" xmlns="http://www.w3.org/2000/svg">
<path fill-rule="evenodd" clip-rule="evenodd" d="M22.1905 0.818206C23.0273 -0.0186313 24.3841 -0.0186304 25.2209 0.818207L27.9483 3.54562C28.7852 4.38246 28.7852 5.73924 27.9483 6.57608L26.5025 8.02189L20.7447 2.26402L22.1905 0.818206ZM20.2512 2.75757L26.009 8.51544L7.50251 27.022L1.74464 21.2641L20.2512 2.75757ZM0.283425 27.9888C0.233864 28.2799 0.486708 28.5327 0.777842 28.4832L6.00654 27.5931C6.34952 27.5347 6.48368 27.1136 6.23767 26.8675L1.89906 22.5289C1.65305 22.2829 1.23191 22.4171 1.17352 22.7601L0.283425 27.9888Z" fill="#ED3C7C"/>
</svg>
