<svg width="39" height="40" viewBox="0 0 39 40" fill="none" xmlns="http://www.w3.org/2000/svg">
<path fill-rule="evenodd" clip-rule="evenodd" d="M22.4592 1.28035C20.7979 -0.426782 18.1044 -0.426783 16.4431 1.28035L1.24598 16.8967C-0.415325 18.6038 -0.415325 21.3716 1.24597 23.0788C2.53145 24.3997 4.43493 24.6985 6.00002 23.9752V36C6.00002 38.2092 7.79088 40 10 40H15V27H24V40H29C31.2092 40 33 38.2092 33 36V24.1466C34.5399 24.7309 36.3376 24.3876 37.5744 23.1166C39.269 21.3753 39.269 18.5521 37.5744 16.8108L23.2049 2.04484C23.077 1.91339 22.943 1.79186 22.804 1.68025C22.6984 1.54161 22.5834 1.40801 22.4592 1.28035Z" fill="#ED3C7C"/>
</svg>
