<svg width="40" height="34" viewBox="0 0 40 34" fill="none" xmlns="http://www.w3.org/2000/svg">
<rect x="10.5059" y="8.26813" width="29.4941" height="21.5728" rx="10.7864" fill="#ED3C7C"/>
<path d="M29.6575 31.469C29.2204 32.2223 28.1324 32.2223 27.6953 31.469L25.3318 27.3959C24.893 26.6397 25.4386 25.6923 26.3129 25.6923L31.0398 25.6923C31.9141 25.6923 32.4598 26.6397 32.021 27.3959L29.6575 31.469Z" fill="#ED3C7C"/>
<rect width="28.9674" height="19.9133" rx="9.95667" transform="matrix(-1 0 0 1 28.9674 0)" fill="#FFF9FF"/>
<path d="M9.85851 22.9567C10.3086 23.6194 11.2853 23.6194 11.7353 22.9567L14.3831 19.0575C14.8946 18.3044 14.3551 17.2859 13.4447 17.2859L8.14912 17.2859C7.23874 17.2859 6.69927 18.3044 7.21071 19.0575L9.85851 22.9567Z" fill="#FFF9FF"/>
</svg>
