<svg width="39" height="40" viewBox="0 0 39 40" fill="none" xmlns="http://www.w3.org/2000/svg">
<path fill-rule="evenodd" clip-rule="evenodd" d="M20.1073 0.585327C18.565 0.585327 17.3146 1.83565 17.3146 3.37801V3.66933C11.2517 4.95416 6.70244 10.3372 6.70244 16.7829V26.8365H2.79268C1.25033 26.8365 0 28.0869 0 29.6292C0 31.1716 1.25032 32.4219 2.79268 32.4219H35.7463C37.2887 32.4219 38.539 31.1716 38.539 29.6292C38.539 28.0869 37.2887 26.8365 35.7463 26.8365H33.5122V16.7829C33.5122 10.3372 28.9629 4.95416 22.9 3.66933V3.37801C22.9 1.83565 21.6497 0.585327 20.1073 0.585327ZM15.0805 34.9354C15.0805 37.5574 17.206 39.6829 19.828 39.6829C22.4501 39.6829 24.5756 37.5574 24.5756 34.9354V34.0976H15.0805V34.9354Z" fill="#ED3C7C"/>
</svg>
