<svg width="20" height="20" viewBox="0 0 20 20" fill="none" xmlns="http://www.w3.org/2000/svg">
<path fill-rule="evenodd" clip-rule="evenodd" d="M10 0C9.23294 0 8.61111 0.621827 8.61111 1.38889V8.61108H1.38889C0.621826 8.61108 0 9.23291 0 9.99997C0 10.767 0.621828 11.3889 1.38889 11.3889H8.61111V18.6111C8.61111 19.3782 9.23294 20 10 20C10.7671 20 11.3889 19.3782 11.3889 18.6111V11.3889H18.6111C19.3782 11.3889 20 10.767 20 9.99997C20 9.23291 19.3782 8.61108 18.6111 8.61108H11.3889V1.38889C11.3889 0.621827 10.7671 0 10 0Z" fill="#ED3C7C"/>
</svg>
