<svg width="34" height="34" viewBox="0 0 34 34" fill="none" xmlns="http://www.w3.org/2000/svg">
<path fill-rule="evenodd" clip-rule="evenodd" d="M22.7985 20.2249C26.4631 15.3137 26.0651 8.32881 21.6044 3.86812C16.7066 -1.02961 8.76585 -1.02961 3.86812 3.86812C-1.02961 8.76585 -1.02961 16.7066 3.86812 21.6044C8.32882 26.0651 15.3137 26.4631 20.2249 22.7985C20.2879 22.8899 20.36 22.9768 20.4413 23.0581L30.3271 32.9439C31.0497 33.6665 32.2213 33.6665 32.9439 32.9439C33.6666 32.2213 33.6666 31.0497 32.9439 30.3271L23.0582 20.4413C22.9769 20.36 22.8899 20.2879 22.7985 20.2249ZM19.569 5.90345C23.3426 9.67711 23.4077 15.7303 19.7143 19.4237C16.021 23.1171 9.96774 23.052 6.19408 19.2783C2.42042 15.5047 2.35533 9.45144 6.0487 5.75807C9.74207 2.0647 15.7953 2.12979 19.569 5.90345Z" fill="#ED3C7C"/>
</svg>
